<?xml version="1.0" encoding="UTF-8"?>
<svg width="1175px" height="418px" viewBox="0 0 1175 418" version="1.1" xmlns="http://www.w3.org/2000/svg" xmlns:xlink="http://www.w3.org/1999/xlink">
    <!-- Generator: Sketch 45 (43475) - http://www.bohemiancoding.com/sketch -->
    <title>Group 5</title>
    <desc>Created with Sketch.</desc>
    <defs></defs>
    <g id="V.2" stroke="none" stroke-width="1" fill="none" fill-rule="evenodd">
        <g id="Desktop" transform="translate(-40.000000, -218.000000)">
            <g id="Group-5" transform="translate(40.000000, 218.000000)">
                <polygon id="Fill-167" fill="#FFDB49" points="1044 241 1075 241 1075 219 1044 219"></polygon>
                <polygon id="Fill-174" fill="#FFFFFF" points="1059.58752 238 1059.71356 230.454539 1056 230.454539 1062.37893 220 1062.23249 227.706237 1066 227.706237"></polygon>
                <polygon id="Fill-175" fill="#000000" points="1062.30507 240 1062.45658 230.984701 1058 230.984701 1065.65481 219 1065.47923 228.20306 1070 228.20306"></polygon>
                <polygon id="Stroke-176" fill="#000000" fill-rule="nonzero" points="1078.2 241.272727 1073.06667 241.272727 1073.06667 244 1081 244 1081 214 1060 214 1060 216.727273 1078.2 216.727273"></polygon>
                <polygon id="Stroke-177" fill="#000000" fill-rule="nonzero" points="1056.90909 241.520522 1048.72727 241.520522 1048.72727 216.752052 1053.72727 216.752052 1053.72727 214 1046 214 1046 244.272574 1054.18182 244.272574 1054.18182 254 1062.31543 244.272574 1066 244.272574 1066 241.520522 1061.0482 241.520522 1056.90909 246.470707"></polygon>
                <polygon id="Stroke-178" fill="#000000" fill-rule="nonzero" points="1082 223 1082 228 1085 228 1085 223"></polygon>
                <polygon id="Fill-165" fill="#00B8C3" points="941 192 911 188.444444 911 175.111111 941 172"></polygon>
                <polygon id="Stroke-187" fill="#FFFFFF" fill-rule="nonzero" points="917 185 936 185 936 182 917 182"></polygon>
                <path d="M942,177 L916.840599,181.056407 L914,180.420214 L914,191.116161 L916.672285,190.49218 L942,195 L942,177 Z M945,174 L945,198 L916.546961,193.160409 L911,194.398215 L911,177.130313 L916.727668,178.356246 L945,174 Z" id="Stroke-202" fill="#000000" fill-rule="nonzero"></path>
                <polygon id="Stroke-203" fill="#000000" fill-rule="nonzero" points="954.22452 174 949 175.476379 949.77548 178 955 176.523621"></polygon>
                <polygon id="Stroke-204" fill="#000000" fill-rule="nonzero" points="955 192.914572 949.419685 192 949 195.085428 954.580315 196"></polygon>
                <polygon id="Stroke-205" fill="#000000" fill-rule="nonzero" points="919.816054 194.697356 919.816054 191 917 191 917 196.852619 929.189293 199 931 194.255005 928.344488 193.388162 927.339141 196.022694"></polygon>
                <path d="M944.043354,192 C946.373988,190.981659 948,188.682648 948,186.009151 C948,183.319698 946.353978,181.008486 944,180 L944.043354,192 Z" id="Fill-206" fill="#000000"></path>
                <circle id="Oval-Copy-19" fill="#000000" cx="1051.5" cy="275.5" r="5.5"></circle>
                <polygon id="Path-4-Copy-27" fill="#000000" fill-rule="nonzero" points="1078.22587 314.296785 1051.0028 314.296785 1051.0028 317 1081 317 1081 302.410385 1052.77413 302.410385 1052.77413 287 1050 287 1050 305.113599 1078.22587 305.113599"></polygon>
                <circle id="Oval-Copy-5" fill="#000000" cx="829.5" cy="158.5" r="5.5"></circle>
                <circle id="Oval-Copy-6" fill="#000000" cx="850.5" cy="158.5" r="5.5"></circle>
                <polygon id="Path-4-Copy-5" fill="#000000" fill-rule="nonzero" points="828 169.89722 840.10278 182 842 180.10278 829.89722 168"></polygon>
                <polygon id="Path-4-Copy-8" fill="#000000" fill-rule="nonzero" transform="translate(824.000000, 175.000000) scale(-1, 1) translate(-824.000000, -175.000000) " points="817 169.89722 829.10278 182 831 180.10278 818.89722 168"></polygon>
                <polygon id="Path-4-Copy-6" fill="#000000" fill-rule="nonzero" points="849 169.89722 861.10278 182 863 180.10278 850.89722 168"></polygon>
                <polygon id="Path-4-Copy-9" fill="#000000" fill-rule="nonzero" transform="translate(845.000000, 175.000000) scale(-1, 1) translate(-845.000000, -175.000000) " points="838 169.89722 850.10278 182 852 180.10278 839.89722 168"></polygon>
                <circle id="Oval-Copy-7" fill="#000000" cx="871.5" cy="158.5" r="5.5"></circle>
                <polygon id="Path-4-Copy-7" fill="#000000" fill-rule="nonzero" points="871 169.89722 883.10278 182 885 180.10278 872.89722 168"></polygon>
                <polygon id="Path-4-Copy-10" fill="#000000" fill-rule="nonzero" transform="translate(866.000000, 175.000000) scale(-1, 1) translate(-866.000000, -175.000000) " points="859 169.89722 871.10278 182 873 180.10278 860.89722 168"></polygon>
                <circle id="Oval-Copy-5" fill="#000000" cx="40.5" cy="114.5" r="5.5"></circle>
                <circle id="Oval-Copy-6" fill="#000000" cx="61.5" cy="114.5" r="5.5"></circle>
                <polygon id="Path-4-Copy-5" fill="#000000" fill-rule="nonzero" points="39 123.89722 51.1027804 136 53 134.10278 40.8972196 122"></polygon>
                <polygon id="Path-4-Copy-8" fill="#000000" fill-rule="nonzero" transform="translate(34.000000, 129.000000) scale(-1, 1) translate(-34.000000, -129.000000) " points="27 123.89722 39.1027804 136 41 134.10278 28.8972196 122"></polygon>
                <polygon id="Path-4-Copy-6" fill="#000000" fill-rule="nonzero" points="60 123.89722 72.1027804 136 74 134.10278 61.8972196 122"></polygon>
                <polygon id="Path-4-Copy-9" fill="#000000" fill-rule="nonzero" transform="translate(56.000000, 129.000000) scale(-1, 1) translate(-56.000000, -129.000000) " points="49 123.89722 61.1027804 136 63 134.10278 50.8972196 122"></polygon>
                <circle id="Oval-Copy-7" fill="#000000" cx="82.5" cy="114.5" r="5.5"></circle>
                <polygon id="Path-4-Copy-7" fill="#000000" fill-rule="nonzero" points="81 123.89722 93.1027804 136 95 134.10278 82.8972196 122"></polygon>
                <polygon id="Path-4-Copy-10" fill="#000000" fill-rule="nonzero" transform="translate(77.000000, 129.000000) scale(-1, 1) translate(-77.000000, -129.000000) " points="70 123.89722 82.1027804 136 84 134.10278 71.8972196 122"></polygon>
                <polygon id="Path-4-Copy-31" fill="#000000" fill-rule="nonzero" points="105.35988 283.526801 194.264474 283.526801 194.264474 395 197 395 197 280.795121 108.095406 280.795121 108.095406 152 9 152 9 154.73168 105.35988 154.73168"></polygon>
                <polygon id="Path-4-Copy-32" fill="#000000" fill-rule="nonzero" points="733 84 733 115 736 115 736 84"></polygon>
                <polygon id="Path-4-Copy-33" fill="#000000" fill-rule="nonzero" points="733 74 733 78 736 78 736 74"></polygon>
                <polygon id="Path-4-Copy-35" fill="#000000" fill-rule="nonzero" points="1057 288 1057 292 1060 292 1060 288"></polygon>
                <polygon id="Path-4-Copy-38" fill="#000000" fill-rule="nonzero" points="950 74 950 78 953 78 953 74"></polygon>
                <polygon id="Fill-171-Copy-4" fill="#64C9F1" points="57 294 91 294 91 261 57 261"></polygon>
                <polygon id="Stroke-220" fill="#000000" fill-rule="nonzero" points="54 266 81 266 81 263 54 263"></polygon>
                <path d="M64,272.512329 C64,272.298629 64.0336784,272.100001 64.1010363,271.916438 C64.1683941,271.732876 64.2668387,271.573973 64.3963731,271.439726 C64.5259074,271.305479 64.6839369,271.198631 64.8704663,271.119178 C65.0569958,271.039726 65.2668382,271 65.5,271 C65.7331618,271 65.9430042,271.039726 66.1295337,271.119178 C66.3160631,271.198631 66.4727973,271.305479 66.5997409,271.439726 C66.7266846,271.573973 66.8251292,271.732876 66.8950777,271.916438 C66.9650263,272.100001 67,272.298629 67,272.512329 C67,272.720549 66.9650263,272.915068 66.8950777,273.09589 C66.8251292,273.276713 66.7266846,273.434246 66.5997409,273.568493 C66.4727973,273.70274 66.3160631,273.808219 66.1295337,273.884932 C65.9430042,273.961644 65.7331618,274 65.5,274 C65.2668382,274 65.0569958,273.961644 64.8704663,273.884932 C64.6839369,273.808219 64.5259074,273.70274 64.3963731,273.568493 C64.2668387,273.434246 64.1683941,273.276713 64.1010363,273.09589 C64.0336784,272.915068 64,272.720549 64,272.512329 Z M65.994302,280.702619 C65.994302,280.995379 65.9648626,281.295838 65.9059829,281.604006 C65.8471032,281.912174 65.7663823,282.210065 65.6638177,282.497689 C65.561253,282.785312 65.4387472,283.057523 65.2962963,283.31433 C65.1538454,283.571136 65.0009505,283.799691 64.8376068,284 L64,283.414484 C64.0721751,283.229583 64.1396008,283.042117 64.2022792,282.85208 C64.2649576,282.662043 64.3190881,282.461737 64.3646724,282.251156 C64.4102566,282.040574 64.4463436,281.817156 64.4729345,281.580894 C64.4995253,281.344632 64.5128205,281.085261 64.5128205,280.802773 L64.5128205,279 L66,279 L65.994302,280.702619 Z" id=";" fill="#FFFFFF"></path>
                <path d="M62,272.512329 C62,272.298629 62.0336784,272.100001 62.1010363,271.916438 C62.1683941,271.732876 62.2668387,271.573973 62.3963731,271.439726 C62.5259074,271.305479 62.6839369,271.198631 62.8704663,271.119178 C63.0569958,271.039726 63.2668382,271 63.5,271 C63.7331618,271 63.9430042,271.039726 64.1295337,271.119178 C64.3160631,271.198631 64.4727973,271.305479 64.5997409,271.439726 C64.7266846,271.573973 64.8251292,271.732876 64.8950777,271.916438 C64.9650263,272.100001 65,272.298629 65,272.512329 C65,272.720549 64.9650263,272.915068 64.8950777,273.09589 C64.8251292,273.276713 64.7266846,273.434246 64.5997409,273.568493 C64.4727973,273.70274 64.3160631,273.808219 64.1295337,273.884932 C63.9430042,273.961644 63.7331618,274 63.5,274 C63.2668382,274 63.0569958,273.961644 62.8704663,273.884932 C62.6839369,273.808219 62.5259074,273.70274 62.3963731,273.568493 C62.2668387,273.434246 62.1683941,273.276713 62.1010363,273.09589 C62.0336784,272.915068 62,272.720549 62,272.512329 Z M63.994302,280.702619 C63.994302,280.995379 63.9648626,281.295838 63.9059829,281.604006 C63.8471032,281.912174 63.7663823,282.210065 63.6638177,282.497689 C63.561253,282.785312 63.4387472,283.057523 63.2962963,283.31433 C63.1538454,283.571136 63.0009505,283.799691 62.8376068,284 L62,283.414484 C62.0721751,283.229583 62.1396008,283.042117 62.2022792,282.85208 C62.2649576,282.662043 62.3190881,282.461737 62.3646724,282.251156 C62.4102566,282.040574 62.4463436,281.817156 62.4729345,281.580894 C62.4995253,281.344632 62.5128205,281.085261 62.5128205,280.802773 L62.5128205,279 L64,279 L63.994302,280.702619 Z" id=";" fill="#000000"></path>
                <path d="M56,288 L86,288 L86,260 L56,260 L56,288 Z M53,290 L53,257 L89,257 L89,290 L53,290 Z" id="Path-3" fill="#000000" fill-rule="nonzero"></path>
                <polygon id="Path-11-Copy" fill="#000000" fill-rule="nonzero" points="736.212297 187.817545 887 187.817545 887 185.092768 738.94956 185.092768 738.94956 129.896468 643.737263 129.896468 643.737263 61 641 61 641 132.621245 736.212297 132.621245"></polygon>
                <circle id="Oval-Copy-13" fill="#000000" cx="619.5" cy="282.5" r="5.5"></circle>
                <circle id="Oval-Copy-17" fill="#000000" cx="575.5" cy="282.5" r="5.5"></circle>
                <polygon id="Path-4-Copy-23" fill="#000000" fill-rule="nonzero" points="618 295 618 341 621 341 621 295"></polygon>
                <polygon id="Path-4-Copy-29" fill="#000000" fill-rule="nonzero" points="574 295 574 341 577 341 577 295"></polygon>
                <polygon id="Path-5-Copy-6" fill="#000000" fill-rule="nonzero" points="617.483661 295 609 319.047729 611.516339 320 620 295.952271"></polygon>
                <polygon id="Path-5-Copy-10" fill="#000000" fill-rule="nonzero" points="582.483661 295 574 319.047729 576.516339 320 585 295.952271"></polygon>
                <polygon id="Path-6-Copy-4" fill="#000000" fill-rule="nonzero" points="588 320 611 320 611 317 588 317"></polygon>
                <polygon id="Fill-167" fill="#BBE05E" points="576 260 612 260 612 235 576 235"></polygon>
                <polygon id="Stroke-186" fill="#FFFFFF" fill-rule="nonzero" points="583 246 605 246 605 243 583 243"></polygon>
                <g id="Group-10" transform="translate(511.000000, 204.000000)">
                    <polygon id="Path-5" fill="#FFDA40" points="0.692382812 6.11816406 0.926757812 31.7822266 21.0957031 20.958252"></polygon>
                    <polygon id="Path-4" fill="#000000" fill-rule="nonzero" points="16.1797725 35.5088324 22.91861 31.3937581 17.2015899 21.3026008 14.5913789 22.7813835 18.8772884 30.3464763 17.2538212 31.3378473 10.67292 19.804607 5.5 23.1621198 5.5 5.96562079 18.6665398 15.651482 13.1865516 18.4303404 14.5433516 21.1059887 24.3700813 16.1229321 2.5 0.0343792139 2.5 28.6858015 9.64161271 24.0504977"></polygon>
                </g>
                <polygon id="Stroke-190" fill="#FFFFFF" fill-rule="nonzero" points="583 252 592 252 592 249 583 249"></polygon>
                <path d="M602,257.002951 L602,232 L573,232 L573,257.002951 L581.245326,257.002951 L581.245326,262 L585.416566,257.002951 L602,257.002951 Z M578.126563,259.272574 L570,259.272574 L570,229 L604,229 L604,259.272574 L586.205248,259.272574 L578.126563,269 L578.126563,259.272574 Z" id="Stroke-177" fill="#000000" fill-rule="nonzero"></path>
                <polygon id="Stroke-177-Copy" fill="#000000" fill-rule="nonzero" transform="translate(602.500000, 255.000000) scale(-1, 1) translate(-602.500000, -255.000000) " points="598.875 262.520522 590.71875 262.520522 590.71875 237.752052 599.237203 237.752052 599.237203 235 588 235 588 265.272574 596.15625 265.272574 596.15625 275 604.264448 265.272574 617 265.272574 617 262.520522 603.001177 262.520522 598.875 267.470707"></polygon>
                <polygon id="Fill-170" fill="#FF6C6C" points="750 153 787 153 787 128 750 128"></polygon>
                <polygon id="Stroke-179" fill="#000000" fill-rule="nonzero" points="800 147 800 152 803 152 803 147"></polygon>
                <polygon id="Stroke-183" fill="#000000" fill-rule="nonzero" points="750 129 794 129 794 126 750 126"></polygon>
                <polygon id="Stroke-186" fill="#FFFFFF" fill-rule="nonzero" points="764 140 786 140 786 137 764 137"></polygon>
                <polygon id="Stroke-188" fill="#000000" fill-rule="nonzero" points="790.2 154.947368 772 154.947368 772 166 774.8 166 774.8 157.710526 791.6 157.710526 793 157.710526 793 131 790.2 131"></polygon>
                <polygon id="Stroke-189" fill="#000000" fill-rule="nonzero" points="755.647059 154.310345 755.647059 131 753 131 753 157 768 157 768 154.310345"></polygon>
                <polygon id="Stroke-190" fill="#FFFFFF" fill-rule="nonzero" points="764 146 773 146 773 143 764 143"></polygon>
                <path d="M790,157 C786.1402,157 783,153.8598 783,150 C783,146.1402 786.1402,143 790,143 C793.8598,143 797,146.1402 797,150 C797,153.8598 793.8598,157 790,157" id="Fill-207" fill="#000000"></path>
                <path d="M790,141 C785.588889,141 782,144.588889 782,149 C782,153.411111 785.588889,157 790,157 C794.411111,157 798,153.411111 798,149 C798,144.588889 794.411111,141 790,141 M790.5,144 C793.537375,144 796,146.462625 796,149.5 C796,152.537375 793.537375,155 790.5,155 C787.462625,155 785,152.537375 785,149.5 C785,146.462625 787.462625,144 790.5,144" id="Fill-208" fill="#FFFFFF"></path>
                <path d="M779.548358,168 C781.518883,163.602418 785.995873,160.697645 791.021914,160.697645 C796.016139,160.697645 800.469734,163.56529 802.459632,167.920706 L805,166.827026 C802.568453,161.504945 797.1251,158 791.021914,158 C784.879749,158 779.407935,161.550237 777,166.923978 L779.548358,168 Z" id="Stroke-209" fill="#000000" fill-rule="nonzero"></path>
                <polygon id="Fill-173" fill="#FFDB49" points="668 173 702 173 702 147 668 147"></polygon>
                <polygon id="Stroke-182" fill="#000000" fill-rule="nonzero" points="698.282482 151.742186 698.282482 174.257814 689.244925 174.257814 689.244925 177 701 177 701 149 662 149 662 175.628907 664.717518 175.628907 664.717518 151.742186"></polygon>
                <polygon id="Stroke-196" fill="#000000" fill-rule="nonzero" points="684 168.075003 686.031164 170 693 163.395416 686.251867 157 684.220704 158.924997 688.937673 163.395416"></polygon>
                <path d="M678,162.5 C678,165.537375 675.537375,168 672.5,168 C669.462625,168 667,165.537375 667,162.5 C667,159.462625 669.462625,157 672.5,157 C675.537375,157 678,159.462625 678,162.5" id="Fill-210" fill="#000000"></path>
                <path d="M716,162.5 C716,165.537375 713.537375,168 710.5,168 C707.462625,168 705,165.537375 705,162.5 C705,159.462625 707.462625,157 710.5,157 C713.537375,157 716,159.462625 716,162.5" id="Fill-210-Copy-7" fill="#000000"></path>
                <path d="M661.548358,182 C663.518883,177.602418 667.995873,174.697645 673.021914,174.697645 C678.016139,174.697645 682.469734,177.56529 684.459632,181.920706 L687,180.827026 C684.568453,175.504945 679.1251,172 673.021914,172 C666.879749,172 661.407935,175.550237 659,180.923978 L661.548358,182 Z" id="Stroke-211" fill="#000000" fill-rule="nonzero"></path>
                <path d="M698.548358,182 C700.518883,177.602418 704.995873,174.697645 710.021914,174.697645 C715.016139,174.697645 719.469734,177.56529 721.459632,181.920706 L724,180.827026 C721.568453,175.504945 716.1251,172 710.021914,172 C703.879749,172 698.407935,175.550237 696,180.923978 L698.548358,182 Z" id="Stroke-211-Copy" fill="#000000" fill-rule="nonzero"></path>
                <polygon id="Fill-172" fill="#BBE05E" points="982 164 1013 164 1013 144 982 144"></polygon>
                <polygon id="Stroke-198" fill="#000000" fill-rule="nonzero" points="1011.26133 140.765997 1011.26133 163 1014 163 1014 138 976 138 976 163 978.738673 163 978.738673 140.765997"></polygon>
                <polygon id="Stroke-217" fill="#000000" fill-rule="nonzero" points="969 169 1019 169 1019 166 969 166"></polygon>
                <polygon id="Fill-172" fill="#BBE05E" points="55 198 86 198 86 178 55 178"></polygon>
                <polygon id="Stroke-198" fill="#000000" fill-rule="nonzero" points="83.2613271 174.765997 83.2613271 197 86 197 86 172 48 172 48 197 50.7386729 197 50.7386729 174.765997"></polygon>
                <polygon id="Stroke-217" fill="#000000" fill-rule="nonzero" points="42 202 92 202 92 199 42 199"></polygon>
                <path d="M52,195 L52,178 L78,178 L78,195 L52,195 Z M76,193 L76,181 L55,181 L55,193 L76,193 Z" id="Stroke-218" fill="#FFFFFF" fill-rule="nonzero"></path>
                <path d="M53,193 L53,176 L79,176 L79,193 L53,193 Z M77,191 L77,179 L56,179 L56,191 L77,191 Z" id="Stroke-219" fill="#000000" fill-rule="nonzero"></path>
                <polygon id="Stroke-220" fill="#000000" fill-rule="nonzero" points="56 182 78 182 78 179 56 179"></polygon>
                <polygon id="Fill-171" fill="#FBB03B" points="508 408 534 408 534 375 508 375"></polygon>
                <polygon id="Stroke-184" fill="#000000" fill-rule="nonzero" points="509 373 526 373 526 370 509 370"></polygon>
                <polygon id="Stroke-185" fill="#FFFFFF" fill-rule="nonzero" points="510 388 525 388 525 385 510 385"></polygon>
                <polygon id="Stroke-185" fill="#FFFFFF" fill-rule="nonzero" points="510 383 525 383 525 380 510 380"></polygon>
                <polygon id="Stroke-197" fill="#000000" fill-rule="nonzero" points="529.28125 403.236842 505.71875 403.236842 505.71875 373.763158 507.402467 373.763158 507.402467 371 503 371 503 406 532 406 532 371 527.044243 371 527.044243 373.763158 529.28125 373.763158"></polygon>
                <polygon id="Stroke-201" fill="#FFFFFF" fill-rule="nonzero" points="510 394 520 394 520 391 510 391"></polygon>
                <circle id="Oval-Copy-16" fill="#000000" cx="1081.5" cy="110.5" r="5.5"></circle>
                <polygon id="Path-4-Copy-28" fill="#000000" fill-rule="nonzero" points="1080 120 1080 174 1083 174 1083 120"></polygon>
                <circle id="Oval-Copy-15" fill="#000000" cx="1149.5" cy="99.5" r="5.5"></circle>
                <polygon id="Path-4-Copy-24" fill="#000000" fill-rule="nonzero" points="1148 112 1148 173 1151 173 1151 112"></polygon>
                <polygon id="Path-5-Copy-8" fill="#000000" fill-rule="nonzero" points="1147.48366 112 1139 136.047729 1141.51634 137 1150 112.952271"></polygon>
                <polygon id="Path-5-Copy-9" fill="#000000" fill-rule="nonzero" points="1134.48366 111 1126 135.047729 1128.51634 136 1137 111.952271"></polygon>
                <polygon id="Path-6-Copy-7" fill="#000000" fill-rule="nonzero" points="1105 136 1128 136 1128 133 1105 133"></polygon>
                <polygon id="Path-6-Copy-8" fill="#000000" fill-rule="nonzero" points="1038 119 1065 119 1065 116 1038 116"></polygon>
                <polygon id="Path-7-Copy" fill="#000000" fill-rule="nonzero" points="1080.76174 101 1135 101 1135 98.2410615 1083.49769 98.2410615 1083.49769 56 1022 56 1022 58.7589385 1080.76174 58.7589385"></polygon>
                <polygon id="Path-8-Copy" fill="#000000" fill-rule="nonzero" points="1083 136 1101 136 1101 133 1083 133"></polygon>
                <polygon id="Path-9-Copy" fill="#000000" fill-rule="nonzero" points="1104.22222 173 1107 173 1107 149 1082 149 1082 151.769231 1104.22222 151.769231"></polygon>
                <polygon id="Path-10-Copy" fill="#000000" fill-rule="nonzero" points="1131.26214 173 1134 173 1134 141 1087 141 1087 143.737395 1131.26214 143.737395"></polygon>
                <polygon id="Fill-171" fill="#64C9F1" points="1042 106 1068 106 1068 73 1042 73"></polygon>
                <polygon id="Stroke-184" fill="#000000" fill-rule="nonzero" points="1042 71 1059 71 1059 68 1042 68"></polygon>
                <polygon id="Stroke-185" fill="#FFFFFF" fill-rule="nonzero" points="1044 87 1059 87 1059 84 1044 84"></polygon>
                <polygon id="Stroke-185" fill="#FFFFFF" fill-rule="nonzero" points="1044 82 1059 82 1059 79 1044 79"></polygon>
                <polygon id="Stroke-197" fill="#000000" fill-rule="nonzero" points="1063.28125 102.236842 1039.71875 102.236842 1039.71875 72.7631579 1041.40247 72.7631579 1041.40247 70 1037 70 1037 105 1066 105 1066 70 1061.04424 70 1061.04424 72.7631579 1063.28125 72.7631579"></polygon>
                <polygon id="Fill-171-Copy-4" fill="#FFDA40" points="1102 88 1136 88 1136 55 1102 55"></polygon>
                <polygon id="Stroke-220" fill="#000000" fill-rule="nonzero" points="1099 60 1126 60 1126 57 1099 57"></polygon>
                <path d="M1108,64.5123288 C1108,64.2986291 1108.03368,64.1000009 1108.10104,63.9164384 C1108.16839,63.7328758 1108.26684,63.5739733 1108.39637,63.439726 C1108.52591,63.3054788 1108.68394,63.1986305 1108.87047,63.1191781 C1109.057,63.0397256 1109.26684,63 1109.5,63 C1109.73316,63 1109.943,63.0397256 1110.12953,63.1191781 C1110.31606,63.1986305 1110.4728,63.3054788 1110.59974,63.439726 C1110.72668,63.5739733 1110.82513,63.7328758 1110.89508,63.9164384 C1110.96503,64.1000009 1111,64.2986291 1111,64.5123288 C1111,64.720549 1110.96503,64.9150676 1110.89508,65.0958904 C1110.82513,65.2767132 1110.72668,65.4342459 1110.59974,65.5684932 C1110.4728,65.7027404 1110.31606,65.8082188 1110.12953,65.8849315 C1109.943,65.9616442 1109.73316,66 1109.5,66 C1109.26684,66 1109.057,65.9616442 1108.87047,65.8849315 C1108.68394,65.8082188 1108.52591,65.7027404 1108.39637,65.5684932 C1108.26684,65.4342459 1108.16839,65.2767132 1108.10104,65.0958904 C1108.03368,64.9150676 1108,64.720549 1108,64.5123288 Z M1109.9943,72.7026194 C1109.9943,72.995379 1109.96486,73.2958382 1109.90598,73.6040062 C1109.8471,73.9121741 1109.76638,74.2100653 1109.66382,74.4976888 C1109.56125,74.7853122 1109.43875,75.0575231 1109.2963,75.3143297 C1109.15385,75.5711364 1109.00095,75.7996908 1108.83761,76 L1108,75.4144838 C1108.07218,75.2295831 1108.1396,75.042117 1108.20228,74.8520801 C1108.26496,74.6620432 1108.31909,74.4617371 1108.36467,74.2511556 C1108.41026,74.0405742 1108.44634,73.8171558 1108.47293,73.5808937 C1108.49953,73.3446316 1108.51282,73.0852608 1108.51282,72.8027735 L1108.51282,71 L1110,71 L1109.9943,72.7026194 Z" id=";" fill="#FFFFFF"></path>
                <path d="M1107,64.5123288 C1107,64.2986291 1107.03368,64.1000009 1107.10104,63.9164384 C1107.16839,63.7328758 1107.26684,63.5739733 1107.39637,63.439726 C1107.52591,63.3054788 1107.68394,63.1986305 1107.87047,63.1191781 C1108.057,63.0397256 1108.26684,63 1108.5,63 C1108.73316,63 1108.943,63.0397256 1109.12953,63.1191781 C1109.31606,63.1986305 1109.4728,63.3054788 1109.59974,63.439726 C1109.72668,63.5739733 1109.82513,63.7328758 1109.89508,63.9164384 C1109.96503,64.1000009 1110,64.2986291 1110,64.5123288 C1110,64.720549 1109.96503,64.9150676 1109.89508,65.0958904 C1109.82513,65.2767132 1109.72668,65.4342459 1109.59974,65.5684932 C1109.4728,65.7027404 1109.31606,65.8082188 1109.12953,65.8849315 C1108.943,65.9616442 1108.73316,66 1108.5,66 C1108.26684,66 1108.057,65.9616442 1107.87047,65.8849315 C1107.68394,65.8082188 1107.52591,65.7027404 1107.39637,65.5684932 C1107.26684,65.4342459 1107.16839,65.2767132 1107.10104,65.0958904 C1107.03368,64.9150676 1107,64.720549 1107,64.5123288 Z M1108.9943,72.7026194 C1108.9943,72.995379 1108.96486,73.2958382 1108.90598,73.6040062 C1108.8471,73.9121741 1108.76638,74.2100653 1108.66382,74.4976888 C1108.56125,74.7853122 1108.43875,75.0575231 1108.2963,75.3143297 C1108.15385,75.5711364 1108.00095,75.7996908 1107.83761,76 L1107,75.4144838 C1107.07218,75.2295831 1107.1396,75.042117 1107.20228,74.8520801 C1107.26496,74.6620432 1107.31909,74.4617371 1107.36467,74.2511556 C1107.41026,74.0405742 1107.44634,73.8171558 1107.47293,73.5808937 C1107.49953,73.3446316 1107.51282,73.0852608 1107.51282,72.8027735 L1107.51282,71 L1109,71 L1108.9943,72.7026194 Z" id=";" fill="#000000"></path>
                <path d="M1100,82 L1130,82 L1130,54 L1100,54 L1100,82 Z M1097,84 L1097,51 L1133,51 L1133,84 L1097,84 Z" id="Path-3" fill="#000000" fill-rule="nonzero"></path>
                <path d="M1062,134.8 C1063.65672,134.8 1065,136.008956 1065,137.5 C1065,138.991044 1063.65672,140.2 1062,140.2 L1062,142 C1064.76128,142 1067,139.985156 1067,137.5 C1067,135.014844 1064.76128,133 1062,133 L1062,134.8 Z" id="Fill-210" fill="#000000" fill-rule="nonzero"></path>
                <g id="Group-4" transform="translate(1038.000000, 126.000000)">
                    <polygon id="Path-3-Copy" fill="#000000" fill-rule="nonzero" transform="translate(15.500000, 3.500000) scale(-1, -1) translate(-15.500000, -3.500000) " points="15.8559517 2.77555756e-17 13 5.91844497 14.5265452 7 18 2.77555756e-17"></polygon>
                    <polygon id="Path-3-Copy-2" fill="#000000" fill-rule="nonzero" transform="translate(11.000000, 4.000000) scale(-1, -1) translate(-11.000000, -4.000000) " points="11.0430806 1 9 5.86694235 10.393311 7 13 1"></polygon>
                    <path d="M5.55111512e-17,7 L18,7 L18,16 L18,16 C18,20.9705627 13.9705627,25 9,25 L9,25 L9,25 C4.02943725,25 4.21694321e-15,20.9705627 3.60822483e-15,16 L5.55111512e-17,7 Z" id="Rectangle-2" fill="#FBB03B"></path>
                    <path d="M15,15.5 C15,17.432875 13.432875,19 11.5,19 C9.567125,19 8,17.432875 8,15.5 C8,13.567125 9.567125,12 11.5,12 C13.432875,12 15,13.567125 15,15.5" id="Fill-210-Copy-7" fill="#FFFFFF"></path>
                </g>
                <path d="M1043,142.273785 C1043,146.540856 1046.47076,150 1050.75217,150 L1051.24783,150 C1055.52924,150 1059,146.540856 1059,142.273785 L1059,134 L1043,134 L1043,142.273785 Z M1061,131 L1061,141.767994 C1061,147.418975 1056.40751,152 1050.74238,152 L1050.25762,152 C1044.59249,152 1040,147.418975 1040,141.767994 L1040,131 L1061,131 Z" id="Rectangle-2" fill="#000000" fill-rule="nonzero"></path>
                <polygon id="Path-4-Copy-40" fill="#000000" fill-rule="nonzero" points="953 158.630401 953 87 950.276321 87 950.276321 155.892799 902 155.892799 902 212 904.723679 212 904.723679 158.630401"></polygon>
                <path d="M314,250.520548 C314,250.164382 314.056131,249.833335 314.168394,249.527397 C314.280657,249.22146 314.444731,248.956622 314.660622,248.732877 C314.876512,248.509131 315.139895,248.331051 315.450777,248.19863 C315.76166,248.066209 316.111397,248 316.5,248 C316.888603,248 317.23834,248.066209 317.549223,248.19863 C317.860105,248.331051 318.121329,248.509131 318.332902,248.732877 C318.544474,248.956622 318.708549,249.22146 318.82513,249.527397 C318.94171,249.833335 319,250.164382 319,250.520548 C319,250.867582 318.94171,251.191779 318.82513,251.493151 C318.708549,251.794522 318.544474,252.057077 318.332902,252.280822 C318.121329,252.504567 317.860105,252.680365 317.549223,252.808219 C317.23834,252.936074 316.888603,253 316.5,253 C316.111397,253 315.76166,252.936074 315.450777,252.808219 C315.139895,252.680365 314.876512,252.504567 314.660622,252.280822 C314.444731,252.057077 314.280657,251.794522 314.168394,251.493151 C314.056131,251.191779 314,250.867582 314,250.520548 Z M317.985755,264.064715 C317.985755,264.591682 317.912156,265.132509 317.764957,265.687211 C317.617758,266.241913 317.415956,266.778118 317.159544,267.29584 C316.903133,267.813562 316.596868,268.303542 316.240741,268.765794 C315.884614,269.228045 315.502376,269.639443 315.094017,270 L313,268.946071 C313.180438,268.613249 313.349002,268.275811 313.505698,267.933744 C313.662394,267.591678 313.79772,267.231127 313.911681,266.85208 C314.025642,266.473034 314.115859,266.07088 314.182336,265.645609 C314.248813,265.220337 314.282051,264.753469 314.282051,264.244992 L314.282051,261 L318,261 L317.985755,264.064715 Z" id=";-copy" fill="#000000"></path>
                <polygon id="Fill-172-Copy" fill="#64C9F1" points="671 107 708 107 708 83 671 83"></polygon>
                <path d="M670,89.4 L670,107.6 C670,108.373199 670.608893,109 671.36,109 L680.445546,109 C680.936846,109 681.389952,108.727228 681.630846,108.286445 L682.664533,106.395017 C683.387212,105.072666 684.746531,104.254351 686.220431,104.254351 L687.918302,104.254351 C689.462912,104.254351 690.875093,105.152264 691.566597,106.574061 L692.370402,108.226763 C692.600904,108.700696 693.07163,109 693.586501,109 L702.64,109 C703.391107,109 704,108.373199 704,107.6 L704,89.4 C704,88.6268014 703.391107,88 702.64,88 L671.36,88 C670.608893,88 670,88.6268014 670,89.4 Z M667,89.1052632 C667,86.8379889 668.852615,85 671.137931,85 L702.862069,85 C705.147385,85 707,86.8379889 707,89.1052632 L707,106.894737 C707,109.162011 705.147385,111 702.862069,111 L693.680021,111 C692.113479,111 690.681247,110.122341 689.979925,108.732614 L689.164706,107.117191 C688.930932,106.653949 688.453522,106.361396 687.931341,106.361396 L686.209362,106.361396 C685.711086,106.361396 685.251547,106.628015 685.007233,107.058856 L683.958869,108.90762 C683.225928,110.200143 681.847309,111 680.352481,111 L671.137931,111 C668.852615,111 667,109.162011 667,106.894737 L667,89.1052632 Z M680,100 C677.238576,100 675,97.7614237 675,95 C675,92.2385763 677.238576,90 680,90 C682.761424,90 685,92.2385763 685,95 C685,97.7614237 682.761424,100 680,100 Z M680.5,98 C681.880712,98 683,96.8807119 683,95.5 C683,94.1192881 681.880712,93 680.5,93 C679.119288,93 678,94.1192881 678,95.5 C678,96.8807119 679.119288,98 680.5,98 Z M694,100 C691.238576,100 689,97.7614237 689,95 C689,92.2385763 691.238576,90 694,90 C696.761424,90 699,92.2385763 699,95 C699,97.7614237 696.761424,100 694,100 Z M693.5,98 C694.880712,98 696,96.8807119 696,95.5 C696,94.1192881 694.880712,93 693.5,93 C692.119288,93 691,94.1192881 691,95.5 C691,96.8807119 692.119288,98 693.5,98 Z" id="Combined-Shape" fill="#000000" fill-rule="nonzero"></path>
                <polygon id="Path-4-Copy-26" fill="#000000" fill-rule="nonzero" points="337 325 337 371 340 371 340 325"></polygon>
                <circle id="Oval-Copy-5" fill="#000000" cx="228.5" cy="354.5" r="5.5"></circle>
                <circle id="Oval-Copy-6" fill="#000000" cx="249.5" cy="354.5" r="5.5"></circle>
                <polygon id="Path-4-Copy-5" fill="#000000" fill-rule="nonzero" points="227 364.89722 239.10278 377 241 375.10278 228.89722 363"></polygon>
                <polygon id="Path-4-Copy-8" fill="#000000" fill-rule="nonzero" transform="translate(223.000000, 370.000000) scale(-1, 1) translate(-223.000000, -370.000000) " points="216 364.89722 228.10278 377 230 375.10278 217.89722 363"></polygon>
                <polygon id="Path-4-Copy-6" fill="#000000" fill-rule="nonzero" points="248 364.89722 260.10278 377 262 375.10278 249.89722 363"></polygon>
                <polygon id="Path-4-Copy-9" fill="#000000" fill-rule="nonzero" transform="translate(244.000000, 370.000000) scale(-1, 1) translate(-244.000000, -370.000000) " points="237 364.89722 249.10278 377 251 375.10278 238.89722 363"></polygon>
                <circle id="Oval-Copy-7" fill="#000000" cx="271.5" cy="354.5" r="5.5"></circle>
                <polygon id="Path-4-Copy-7" fill="#000000" fill-rule="nonzero" points="270 364.89722 282.10278 377 284 375.10278 271.89722 363"></polygon>
                <polygon id="Path-4-Copy-10" fill="#000000" fill-rule="nonzero" transform="translate(266.000000, 370.000000) scale(-1, 1) translate(-266.000000, -370.000000) " points="259 364.89722 271.10278 377 273 375.10278 260.89722 363"></polygon>
                <polygon id="Path-4-Copy-30" fill="#000000" fill-rule="nonzero" points="453 263 453 373 456 373 456 263"></polygon>
                <polygon id="Path-4-Copy-34" fill="#000000" fill-rule="nonzero" points="453 381 453 385 456 385 456 381"></polygon>
                <polygon id="Path-4-Copy-36" fill="#000000" fill-rule="nonzero" points="332 334 332 338 335 338 335 334"></polygon>
                <circle id="Oval-Copy-14" fill="#000000" cx="165.5" cy="304.5" r="5.5"></circle>
                <circle id="Oval-Copy-18" fill="#000000" cx="117.5" cy="304.5" r="5.5"></circle>
                <polygon id="Path-4-Copy-25" fill="#000000" fill-rule="nonzero" points="116 317 116 373 119 373 119 317"></polygon>
                <polygon id="Path-5-Copy-7" fill="#000000" fill-rule="nonzero" points="164.483661 317 156 341.047729 158.516339 342 167 317.952271"></polygon>
                <polygon id="Path-5-Copy-11" fill="#000000" fill-rule="nonzero" transform="translate(121.500000, 329.500000) scale(-1, 1) translate(-121.500000, -329.500000) " points="124.483661 317 116 341.047729 118.516339 342 127 317.952271"></polygon>
                <polygon id="Path-6-Copy-6" fill="#000000" fill-rule="nonzero" points="164.230769 342.760238 164.230769 374.53627 167 374.53627 167 340 131 340 131 375 133.769231 375 133.769231 342.760238"></polygon>
                <polygon id="Path-4-Copy-37" fill="#000000" fill-rule="nonzero" points="177 305 177 309 180 309 180 305"></polygon>
                <polygon id="Path-6-Copy-9" fill="#000000" fill-rule="nonzero" points="384 345 414 345 414 342 384 342"></polygon>
                <polygon id="Fill-169" fill="#FBB03B" points="903 139 926 139 926 109 903 109"></polygon>
                <polygon id="Stroke-181" fill="#000000" fill-rule="nonzero" points="917 136 917 139 920 139 920 136"></polygon>
                <polygon id="Stroke-215" fill="#000000" fill-rule="nonzero" points="928.283347 105.701673 928.283347 139.298327 908.716653 139.298327 908.716653 120.526203 906 120.526203 906 142 931 142 931 103 906 103 906 116.53223 908.716653 116.53223 908.716653 105.701673"></polygon>
                <polygon id="Stroke-216" fill="#000000" fill-rule="nonzero" points="924.303656 110.730352 924.303656 132.269648 911.348172 132.269648 911.348172 135 927 135 927 108 910 108 910 129.30221 912.696344 129.30221 912.696344 110.730352"></polygon>
                <path d="M264.673842,314 C266.154082,311.386833 267,308.379218 267,305.17642 C267,295.138174 258.717307,287 248.500231,287 C238.282693,287 230,295.138174 230,305.17642 C230,308.379218 230.845918,311.386833 232.326158,314 L264.673842,314 Z" id="Fill-199" fill="#FFDB49"></path>
                <polygon id="Stroke-200" fill="#000000" fill-rule="nonzero" points="226.76259 328.253502 226.76259 314.415728 268.805065 314.415728 268.805065 311.66923 224 311.66923 224 331 272 331 272 281 269.23741 281 269.23741 328.253502"></polygon>
                <path d="M253,294.5 C253,297.537375 250.537375,300 247.5,300 C244.462625,300 242,297.537375 242,294.5 C242,291.462625 244.462625,289 247.5,289 C250.537375,289 253,291.462625 253,294.5" id="Fill-212" fill="#000000"></path>
                <path d="M236.548358,312 C238.518883,307.602418 242.995873,304.697645 248.021914,304.697645 C253.016139,304.697645 257.469734,307.56529 259.459632,311.920706 L262,310.827026 C259.568453,305.504945 254.1251,302 248.021914,302 C241.879749,302 236.407935,305.550237 234,310.923978 L236.548358,312 Z" id="Stroke-213" fill="#000000" fill-rule="nonzero"></path>
                <polygon id="Stroke-221" fill="#000000" fill-rule="nonzero" points="270 298.465814 271.021793 301 288 294.262673 271.930986 288 270.924981 290.540395 280.534399 294.285531"></polygon>
                <polygon id="Path-4-Copy-39" fill="#000000" fill-rule="nonzero" transform="translate(429.500000, 332.000000) scale(-1, 1) translate(-429.500000, -332.000000) " points="461.000884 280.800767 543.266825 280.800767 543.266825 412 546 412 546 278.077001 463.734059 278.077001 463.734059 252 313 252 313 254.723766 461.000884 254.723766"></polygon>
                <polygon id="Stroke-196-Copy" fill="#000000" fill-rule="nonzero" points="463 274.075003 465.031164 276 472 269.395416 465.251867 263 463.220704 264.924997 467.937673 269.395416"></polygon>
                <circle id="Oval-Copy-20" fill="#000000" cx="414.5" cy="311.5" r="5.5"></circle>
                <circle id="Oval-Copy-21" fill="#000000" cx="339.5" cy="311.5" r="5.5"></circle>
                <polygon id="Path-4-Copy-41" fill="#000000" fill-rule="nonzero" points="425.239667 368 428 368 428 340.044623 415.337109 320 413 321.461195 425.239667 340.835879"></polygon>
                <g id="Group-3" transform="translate(370.792766, 335.323452) rotate(24.000000) translate(-370.792766, -335.323452) translate(355.067507, 314.604819)">
                    <path d="M27.6284279,14.7667274 C27.6284279,21.1179967 22.4797605,26.2667274 16.1285692,26.2667274 C9.77737795,26.2667274 4.62842792,21.1179967 4.62842792,14.7667274 C4.62842792,8.41545807 9.77737795,3.2667274 16.1285692,3.2667274 C22.4797605,3.2667274 27.6284279,8.41545807 27.6284279,14.7667274" id="Fill-191" fill="#FF6C6C" transform="translate(15.747301, 15.023888) rotate(24.000000) translate(-15.747301, -15.023888) "></path>
                    <path d="M13.9160108,12.0220053 C13.9160108,13.6788581 12.5728801,15.0220053 10.9160476,15.0220053 C9.25921513,15.0220053 7.91601078,13.6788581 7.91601078,12.0220053 C7.91601078,10.3651524 9.25921513,9.02200526 10.9160476,9.02200526 C12.5728801,9.02200526 13.9160108,10.3651524 13.9160108,12.0220053" id="Fill-191" fill="#FFFFFF" transform="translate(11.311030, 11.805669) rotate(24.000000) translate(-11.311030, -11.805669) "></path>
                    <path d="M6.02655222,25.4688028 C3.52766572,23.4841591 2.0165088,20.3376851 2.0165088,16.9086699 C2.0165088,15.6965567 2.20391136,14.5140232 2.56620011,13.3960278 C2.87262735,12.4504168 3.30187241,11.5585514 3.83929535,10.7451028 C4.2098033,10.1842983 4.62989857,9.66357674 5.09292898,9.19066212 C5.71270688,8.55765396 6.40541827,8.01435644 7.15280628,7.57565473 C8.57140677,6.74296482 10.1596262,6.30174822 11.8087308,6.30174822 C17.1948929,6.30174822 21.6009527,11.0303113 21.6009527,16.9086699 C21.6009527,19.2397539 20.9060068,21.4515277 19.6423893,23.2727612 L21.8665112,24.8185222 C23.4443851,22.5443555 24.3087308,19.7934407 24.3087308,16.9086699 C24.3087308,9.5742179 18.7342229,3.59168173 11.8087308,3.59168173 C9.67275909,3.59168173 7.61258064,4.1640113 5.78294811,5.23796874 C4.8274885,5.79880429 3.94535687,6.4906652 3.15892843,7.29388134 C2.57481777,7.89046087 2.04607688,8.54585215 1.58063699,9.25034654 C0.908276836,10.2680375 0.372387588,11.3814832 -0.00949890967,12.5599558 C-0.459159673,13.9475745 -0.691269247,15.4122148 -0.691269247,16.9086699 C-0.691269247,21.1627922 1.1956901,25.0917478 4.34338417,27.5916817 L6.02655222,25.4688028 Z" id="Combined-Shape" fill="#000000" fill-rule="nonzero"></path>
                    <path d="M12.961994,29.3968268 L12.961994,38.3296088 L15.0890452,38.3296088 L15.0890452,29.4260234 L17.7033438,26.3296088 L9.70334382,26.3296088 L12.961994,29.3968268 Z M3.38693822,23.6686724 L23.3869382,23.6686724 L17.9570447,30.6075177 L17.9570447,41.6686724 L10.3667593,41.6686724 L10.3667593,30.75699 L3.38693822,23.6686724 Z" id="Path-13" fill="#000000" fill-rule="nonzero"></path>
                </g>
                <polygon id="Path-14-Copy-7" fill="#000000" fill-rule="nonzero" points="214 260 287 260 287 257 214 257"></polygon>
                <polygon id="Path-14-Copy-9" fill="#000000" fill-rule="nonzero" points="21 244 94 244 94 241 21 241"></polygon>
                <polygon id="Path-14-Copy-8" fill="#000000" fill-rule="nonzero" points="544 198 887 198 887 195 544 195"></polygon>
                <polygon id="Path-14-Copy-4" fill="#000000" fill-rule="nonzero" points="456 356 647 356 647 353 456 353"></polygon>
                <polygon id="Path-18" fill="#000000" fill-rule="nonzero" points="1172.26841 194.811479 1027 194.811479 1027 324 1029.73159 324 1029.73159 197.54024 1175 197.54024 1175 0 1101.8404 1.29260069e-14 1101.8404 2.72876062 1172.26841 2.72876062"></polygon>
                <polygon id="Path-19" fill="#000000" fill-rule="nonzero" points="547 418 547 197 544 197 544 418"></polygon>
                <polygon id="Path-14-Copy" fill="#000000" fill-rule="nonzero" points="0 155 4 155 4 152 0 152"></polygon>
                <polygon id="Path-14-Copy-2" fill="#000000" fill-rule="nonzero" points="489 281 493 281 493 278 489 278"></polygon>
                <polygon id="Path-14-Copy-3" fill="#000000" fill-rule="nonzero" points="489 295 493 295 493 292 489 292"></polygon>
                <path d="M76,395.5 C76,404.060406 69.0604917,411 60.5001905,411 C51.9398892,411 45,404.060406 45,395.5 C45,386.939594 51.9398892,380 60.5001905,380 C69.0604917,380 76,386.939594 76,395.5" id="Fill-191" fill="#FF6C6C"></path>
                <path d="M56,392.268589 L56,394.561183 L56,394.561183 C56,396.643803 57.6882969,398.3321 59.7709166,398.3321 C60.5725841,398.3321 61.3533911,398.076615 62,397.602729 L62.1373022,397.502103 L62.1373022,397.502103 C64.4298797,395.821922 64.9263253,392.601366 63.2461446,390.308788 C62.9019745,389.839174 62.4806122,389.431366 62,389.102729 L62,389.102729 L62,389.102729 C60.2515438,387.907155 57.8649361,388.355355 56.6693625,390.103811 C56.2333056,390.741519 56,391.49605 56,392.268589 Z" id="Path-21" fill="#FFFFFF"></path>
                <path d="M50.1340559,402.466005 C48.5591848,400.078681 47.7050157,397.266036 47.7050157,394.318968 C47.7050157,386.272279 54.0711687,379.752417 61.9195224,379.752417 C63.9997922,379.752417 66.0146309,380.209963 67.8612908,381.08199 L69,378.585332 C66.798486,377.545737 64.3952917,377 61.9195224,377 C52.5732881,377 45,384.756143 45,394.318968 C45,397.816397 46.0161052,401.162271 47.8880989,404 L50.1340559,402.466005 Z" id="Stroke-193" fill="#000000" fill-rule="nonzero"></path>
                <path d="M71.8643001,383.071393 C75.2269274,385.760745 77.2122003,389.756673 77.2122003,394.071532 C77.2122003,401.936881 70.651326,408.309702 62.5630562,408.309702 C60.3340818,408.309702 58.1787179,407.826502 56.2163342,406.908236 L55,409.328961 C57.339375,410.423635 59.9103127,411 62.5630562,411 C72.1950682,411 80,403.41878 80,394.071532 C80,388.947994 77.638945,384.195698 73.6432095,381 L71.8643001,383.071393 Z" id="Stroke-195" fill="#000000" fill-rule="nonzero"></path>
                <path d="M61.4434993,397.921387 C61.1620944,398.093632 60.92046,398.20726 60.7395654,398.261444 C60.6967977,398.101846 60.6660867,397.874252 60.6557633,397.583196 C60.7166039,395.236862 60.7162504,392.508944 60.6549092,389.39815 L58,389.453068 C58.0609049,392.541735 58.0609049,395.241408 58.0002101,397.550777 L58.0003192,397.627903 C58.0923499,400.788845 60.1523397,401.881148 62.8218376,400.24598 C64.929439,398.915106 66.7648212,397.695441 68.3441414,396.576623 L68.4023432,396.53295 C70.5274082,394.84562 70.5274082,392.627036 68.43304,390.860015 L62.3191232,386 L60.6911552,388.148681 L66.7748724,392.983964 C67.5299626,393.621772 67.5392486,393.773162 66.8032095,394.361305 C65.2715536,395.445328 63.4847283,396.632283 61.4434993,397.921387 Z" id="Path-20" fill="#000000" fill-rule="nonzero"></path>
                <polygon id="Stroke-179-Copy" fill="#000000" fill-rule="nonzero" points="828 128 828 146 831 146 831 128"></polygon>
                <polygon id="Stroke-179-Copy" fill="#000000" fill-rule="nonzero" points="849 128 849 146 852 146 852 128"></polygon>
                <polygon id="Stroke-179-Copy" fill="#000000" fill-rule="nonzero" points="872 128 872 146 875 146 875 128"></polygon>
                <path d="M73,223.5 C73,226.537375 70.537375,229 67.5,229 C64.462625,229 62,226.537375 62,223.5 C62,220.462625 64.462625,218 67.5,218 C70.537375,218 73,220.462625 73,223.5" id="Fill-210-Copy-7" fill="#000000"></path>
                <path d="M56.548358,242 C58.5188834,237.602418 62.9958732,234.697645 68.0219137,234.697645 C73.0161391,234.697645 77.4697339,237.56529 79.459632,241.920706 L82,240.827026 C79.568453,235.504945 74.1251001,232 68.0219137,232 C61.8797485,232 56.4079352,235.550237 54,240.923978 L56.548358,242 Z" id="Stroke-211-Copy" fill="#000000" fill-rule="nonzero"></path>
                <rect id="Rectangle-3" fill="#00B8C3" transform="translate(511.500000, 324.500000) scale(-1, 1) translate(-511.500000, -324.500000) " x="507" y="310" width="9" height="29"></rect>
                <rect id="Rectangle-3-Copy" fill="#00B8C3" transform="translate(525.500000, 317.500000) scale(-1, 1) translate(-525.500000, -317.500000) " x="521" y="296" width="9" height="43"></rect>
                <rect id="Rectangle-3" fill="#00B8C3" transform="translate(497.500000, 331.000000) scale(-1, 1) translate(-497.500000, -331.000000) " x="493" y="324" width="9" height="14"></rect>
                <path d="M506,309 L506,335 L512,335 L512,309 L506,309 Z M514,306 L514,337 L503,337 L503,306 L514,306 Z" id="Rectangle-3" fill="#000000" fill-rule="nonzero"></path>
                <path d="M520,335 L526,335 L526,295 L520,295 L520,335 Z M528,292 L528,338 L517,338 L517,292 L528,292 Z" id="Rectangle-3-Copy" fill="#000000" fill-rule="nonzero"></path>
                <path d="M492,333 L498,333 L498,322 L492,322 L492,333 Z M500,319 L500,336 L489,336 L489,319 L500,319 Z" id="Rectangle-3" fill="#000000" fill-rule="nonzero"></path>
                <circle id="Oval-Copy-16" fill="#000000" cx="90.5" cy="325.5" r="5.5"></circle>
                <polygon id="Path-4-Copy-28" fill="#000000" fill-rule="nonzero" points="65 358.294118 65 361 92 361 92 338 89.2733282 338 89.2733282 358.294118"></polygon>
                <polygon id="Path-5-Copy-9" fill="#000000" fill-rule="nonzero" points="61.4836614 329 53 353.047729 55.5163386 354 64 329.952271"></polygon>
                <polygon id="Path-6-Copy-7" fill="#000000" fill-rule="nonzero" points="62 354 85 354 85 351 62 351"></polygon>
                <g id="Group-2" transform="translate(693.000000, 243.000000)"></g>
            </g>
        </g>
    </g>
</svg>