<svg xmlns="http://www.w3.org/2000/svg" viewBox="0 0 292 27"><defs><style>.cls-1{opacity:0.75;}.cls-2{fill:#232323;}</style></defs><title>Asset 16</title><g id="Layer_2" data-name="Layer 2"><g id="Layer_1-2" data-name="Layer 1"><g class="cls-1"><polygon class="cls-2" points="24.14 0.5 24.14 10.74 24.14 10.88 24.14 10.96 24.05 10.96 23.91 10.96 21.51 10.96 20 14.87 23.91 14.87 24.05 14.87 24.14 14.87 24.14 14.96 24.14 15.1 24.14 26.5 29 26.5 29 0.5 24.14 0.5"/><polyline class="cls-2" points="16.88 10.98 16.79 10.98 16.79 10.89 16.79 10.75"/><polygon class="cls-2" points="12.28 26.5 7 26.5 16.71 0.5 22 0.5 12.28 26.5"/><polygon class="cls-2" points="9 10.96 4.85 10.96 4.72 10.96 4.63 10.96 4.63 10.88 4.63 10.74 4.63 0.5 0 0.5 0 26.5 4.63 26.5 4.63 15.1 4.63 14.96 4.63 14.87 4.72 14.87 4.85 14.87 7.56 14.87 9 10.96"/></g><path class="cls-2" d="M39,.44H49.4A30.12,30.12,0,0,1,54,.7a6.79,6.79,0,0,1,2.72,1.08,6.72,6.72,0,0,1,2,2.18A5.92,5.92,0,0,1,59.52,7a6.18,6.18,0,0,1-3.66,5.66A6.85,6.85,0,0,1,59.52,15,6.29,6.29,0,0,1,60.8,19,7.78,7.78,0,0,1,60,22.43a7,7,0,0,1-2.25,2.69,7.44,7.44,0,0,1-3.52,1.24q-1.31.14-6.34.18H39Zm5.26,4.34v6H47.7q3.07,0,3.82-.09a3.47,3.47,0,0,0,2.12-.94,2.76,2.76,0,0,0,.77-2,2.87,2.87,0,0,0-.67-2,3,3,0,0,0-2-.92q-.78-.09-4.49-.09Zm0,10.38v7h4.86a23.63,23.63,0,0,0,3.6-.16,3.25,3.25,0,0,0,1.91-1,3.22,3.22,0,0,0,.74-2.22,3.42,3.42,0,0,0-.57-2,3.22,3.22,0,0,0-1.64-1.19,17.82,17.82,0,0,0-4.66-.37Z"/><path class="cls-2" d="M63.57.44h5.26V14.58a29.29,29.29,0,0,0,.2,4.36,4.22,4.22,0,0,0,1.61,2.57,5.59,5.59,0,0,0,3.47,1,5.28,5.28,0,0,0,3.37-.92,3.62,3.62,0,0,0,1.37-2.25,29.56,29.56,0,0,0,.23-4.43V.44h5.26V14.15a35.25,35.25,0,0,1-.43,6.64,7.34,7.34,0,0,1-1.57,3.27,7.93,7.93,0,0,1-3.06,2.13,13.3,13.3,0,0,1-5,.79,14.38,14.38,0,0,1-5.65-.86,8.09,8.09,0,0,1-3-2.24A7.19,7.19,0,0,1,64.08,21a31.77,31.77,0,0,1-.51-6.62Z"/><path class="cls-2" d="M88.23,26.54V.44h19.3V4.86h-14v5.79h13.07V15H93.48v7.1H108v4.4Z"/><path class="cls-2" d="M110.9,26.54V.44H116l10.65,17.42V.44h4.88V26.54h-5.27l-10.49-17v17Z"/><path class="cls-2" d="M134.4,13.65A16.63,16.63,0,0,1,135.59,7,12.28,12.28,0,0,1,138,3.38,10.15,10.15,0,0,1,141.38,1,14.26,14.26,0,0,1,147,0a12.2,12.2,0,0,1,9.21,3.58q3.45,3.58,3.45,9.95t-3.43,9.89A12.11,12.11,0,0,1,147.06,27a12.24,12.24,0,0,1-9.23-3.55Q134.4,19.88,134.4,13.65Zm5.41-.18q0,4.43,2,6.72a7,7,0,0,0,10.34,0q2-2.27,2-6.81t-2-6.69a7.26,7.26,0,0,0-10.45,0Q139.81,9,139.81,13.47Z"/><path class="cls-2" d="M160.78,18l5.11-.5a6.26,6.26,0,0,0,1.87,3.79,5.65,5.65,0,0,0,3.81,1.21,5.84,5.84,0,0,0,3.83-1.08A3.21,3.21,0,0,0,176.69,19a2.38,2.38,0,0,0-.54-1.58,4.33,4.33,0,0,0-1.89-1.13q-.92-.32-4.21-1.14a14.24,14.24,0,0,1-5.93-2.58,6.79,6.79,0,0,1-2.4-5.25,6.71,6.71,0,0,1,1.13-3.73A7.06,7.06,0,0,1,166.1.91,13,13,0,0,1,171.22,0q4.9,0,7.38,2.15a7.61,7.61,0,0,1,2.6,5.75l-5.26.23a4.48,4.48,0,0,0-1.45-2.89,5.29,5.29,0,0,0-3.33-.88,6,6,0,0,0-3.59.94,1.9,1.9,0,0,0-.83,1.62,2,2,0,0,0,.78,1.58q1,.84,4.83,1.74A25.49,25.49,0,0,1,178,12.13a7.32,7.32,0,0,1,2.88,2.65,7.77,7.77,0,0,1,1,4.16,7.69,7.69,0,0,1-1.24,4.2A7.45,7.45,0,0,1,177.18,26a14.7,14.7,0,0,1-5.66,1q-4.94,0-7.58-2.29A10,10,0,0,1,160.78,18Z"/><path class="cls-2" d="M215.31,26.54H209.6l-2.27-5.93h-10.4l-2.15,5.93H189.2L199.33.44h5.56Zm-9.68-10.32-3.59-9.68-3.52,9.68Z"/><path class="cls-2" d="M216.3,26.54V.44h5.26V26.54Z"/><path class="cls-2" d="M224.95,26.54V.44H236a18.87,18.87,0,0,1,6.06.7,6,6,0,0,1,3,2.5,7.53,7.53,0,0,1,1.14,4.11,7,7,0,0,1-1.72,4.85A8.27,8.27,0,0,1,239.36,15a12.28,12.28,0,0,1,2.81,2.19,29.85,29.85,0,0,1,3,4.24l3.18,5.09h-6.29l-3.8-5.68A36.75,36.75,0,0,0,235.49,17a4,4,0,0,0-1.58-1.09,8.64,8.64,0,0,0-2.64-.29H230.2V26.54Zm5.26-15.06h3.89a20,20,0,0,0,4.72-.32,2.83,2.83,0,0,0,1.47-1.1,3.4,3.4,0,0,0,.53-2,3.13,3.13,0,0,0-.7-2.13,3.22,3.22,0,0,0-2-1q-.64-.09-3.83-.09h-4.1Z"/><path class="cls-2" d="M249.55,26.54V.44h19.3V4.86h-14v5.79h13.07V15H254.81v7.1h14.54v4.4Z"/><path class="cls-2" d="M270.84,18l5.11-.5a6.26,6.26,0,0,0,1.87,3.79,5.65,5.65,0,0,0,3.81,1.21,5.84,5.84,0,0,0,3.83-1.08A3.2,3.2,0,0,0,286.74,19a2.38,2.38,0,0,0-.54-1.58,4.33,4.33,0,0,0-1.89-1.13q-.92-.32-4.21-1.14a14.24,14.24,0,0,1-5.93-2.58,6.8,6.8,0,0,1-2.4-5.25,6.71,6.71,0,0,1,1.13-3.73A7.06,7.06,0,0,1,276.15.91,13,13,0,0,1,281.28,0q4.9,0,7.38,2.15a7.61,7.61,0,0,1,2.6,5.75L286,8.13a4.48,4.48,0,0,0-1.45-2.89,5.29,5.29,0,0,0-3.33-.88,6,6,0,0,0-3.59.94,1.9,1.9,0,0,0-.83,1.62,2,2,0,0,0,.78,1.58q1,.84,4.83,1.74a25.47,25.47,0,0,1,5.67,1.88A7.33,7.33,0,0,1,291,14.78a7.78,7.78,0,0,1,1,4.16,7.69,7.69,0,0,1-1.24,4.2A7.45,7.45,0,0,1,287.24,26a14.7,14.7,0,0,1-5.66,1q-4.94,0-7.58-2.29A10,10,0,0,1,270.84,18Z"/></g></g></svg>