<?xml version="1.0" encoding="UTF-8"?>
<svg width="293px" height="28px" viewBox="0 0 293 28" version="1.1" xmlns="http://www.w3.org/2000/svg" xmlns:xlink="http://www.w3.org/1999/xlink">
    <!-- Generator: Sketch 45 (43475) - http://www.bohemiancoding.com/sketch -->
    <title>logo_hhba_b</title>
    <desc>Created with Sketch.</desc>
    <defs></defs>
    <g id="V.2" stroke="none" stroke-width="1" fill="none" fill-rule="evenodd">
        <g id="Desktop" transform="translate(-111.000000, -1228.000000)" fill="#FFFFFF">
            <g id="logo_hhba_b" transform="translate(111.000000, 1228.000000)">
                <g id="Group-21" transform="translate(0.000000, 0.240000)">
                    <polygon id="Fill-13" points="24.8493 0.5 24.8493 10.739 24.8493 10.875 24.8493 10.965 24.7573 10.965 24.6193 10.965 22.2143 10.965 20.7063 14.874 24.6193 14.874 24.7573 14.874 24.8493 14.874 24.8493 14.965 24.8493 15.101 24.8493 26.5 29.7063 26.5 29.7063 0.5"></polygon>
                    <polyline id="Fill-15" points="17.586 10.9778 17.495 10.9778 17.495 10.8868 17.495 10.7518"></polyline>
                    <polygon id="Fill-17" points="12.989 26.5 7.706 26.5 17.413 0.5 22.706 0.5"></polygon>
                    <polygon id="Fill-19" points="9.7058 10.9652 5.5588 10.9652 5.4278 10.9652 5.3398 10.9652 5.3398 10.8742 5.3398 10.7382 5.3398 0.5002 0.7058 0.5002 0.7058 26.5002 5.3398 26.5002 5.3398 15.1002 5.3398 14.9642 5.3398 14.8742 5.4278 14.8742 5.5588 14.8742 8.2678 14.8742"></polygon>
                </g>
                <path d="M44.9609,15.4042 L44.9609,22.3802 L49.8249,22.3802 C51.7189,22.3802 52.9199,22.3272 53.4299,22.2202 C54.2109,22.0782 54.8469,21.7312 55.3389,21.1792 C55.8289,20.6272 56.0749,19.8882 56.0749,18.9632 C56.0749,18.1802 55.8849,17.5162 55.5069,16.9692 C55.1279,16.4242 54.5799,16.0262 53.8649,15.7772 C53.1479,15.5282 51.5939,15.4042 49.2039,15.4042 L44.9609,15.4042 Z M44.9609,5.0272 L44.9609,11.0612 L48.4049,11.0612 C50.4529,11.0612 51.7249,11.0312 52.2219,10.9722 C53.1219,10.8652 53.8289,10.5542 54.3439,10.0372 C54.8589,9.5212 55.1159,8.8422 55.1159,8.0002 C55.1159,7.1932 54.8939,6.5382 54.4509,6.0332 C54.0069,5.5282 53.3469,5.2242 52.4709,5.1162 C51.9499,5.0572 50.4529,5.0272 47.9789,5.0272 L44.9609,5.0272 Z M39.7059,0.6842 L50.1099,0.6842 C52.1689,0.6842 53.7049,0.7712 54.7169,0.9422 C55.7289,1.1152 56.6339,1.4742 57.4329,2.0192 C58.2319,2.5662 58.8979,3.2932 59.4309,4.1992 C59.9629,5.1072 60.2289,6.1252 60.2289,7.2522 C60.2289,8.4752 59.9009,9.5962 59.2449,10.6162 C58.5879,11.6372 57.6969,12.4022 56.5719,12.9122 C58.1579,13.3742 59.3769,14.1642 60.2289,15.2792 C61.0819,16.3952 61.5079,17.7052 61.5079,19.2122 C61.5079,20.3992 61.2319,21.5532 60.6819,22.6742 C60.1319,23.7952 59.3799,24.6912 58.4279,25.3622 C57.4739,26.0322 56.2999,26.4442 54.9029,26.5992 C54.0269,26.6942 51.9139,26.7532 48.5649,26.7772 L39.7059,26.7772 L39.7059,0.6842 Z" id="Fill-22"></path>
                <path d="M64.2743,0.6846 L69.5293,0.6846 L69.5293,14.8166 C69.5293,17.0596 69.5943,18.5126 69.7253,19.1776 C69.9493,20.2456 70.4853,21.1026 71.3313,21.7486 C72.1783,22.3956 73.3353,22.7186 74.8033,22.7186 C76.2943,22.7186 77.4183,22.4136 78.1753,21.8016 C78.9333,21.1916 79.3893,20.4406 79.5433,19.5506 C79.6963,18.6616 79.7733,17.1836 79.7733,15.1186 L79.7733,0.6846 L85.0283,0.6846 L85.0283,14.3896 C85.0283,17.5216 84.8873,19.7346 84.6023,21.0276 C84.3193,22.3216 83.7953,23.4136 83.0313,24.3026 C82.2683,25.1926 81.2473,25.9026 79.9693,26.4296 C78.6903,26.9576 77.0213,27.2216 74.9633,27.2216 C72.4773,27.2216 70.5923,26.9346 69.3083,26.3586 C68.0233,25.7826 67.0083,25.0356 66.2633,24.1156 C65.5173,23.1966 65.0263,22.2326 64.7893,21.2236 C64.4463,19.7296 64.2743,17.5216 64.2743,14.6026 L64.2743,0.6846 Z" id="Fill-24"></path>
                <polygon id="Fill-26" points="88.9325 26.7768 88.9325 0.6848 108.2305 0.6848 108.2305 5.0988 94.1875 5.0988 94.1875 10.8838 107.2545 10.8838 107.2545 15.2788 94.1875 15.2788 94.1875 22.3808 108.7275 22.3808 108.7275 26.7768"></polygon>
                <polygon id="Fill-28" points="111.6012 26.7768 111.6012 0.6848 116.7142 0.6848 127.3662 18.1088 127.3662 0.6848 132.2492 0.6848 132.2492 26.7768 126.9752 26.7768 116.4832 9.7618 116.4832 26.7768"></polygon>
                <path d="M140.5192,13.7126 C140.5192,16.6676 141.1992,18.9076 142.5612,20.4316 C143.9222,21.9566 145.6502,22.7186 147.7452,22.7186 C149.8402,22.7186 151.5592,21.9626 152.9032,20.4496 C154.2462,18.9366 154.9182,16.6676 154.9182,13.6426 C154.9182,10.6516 154.2632,8.4206 152.9562,6.9496 C151.6482,5.4786 149.9112,4.7426 147.7452,4.7426 C145.5792,4.7426 143.8332,5.4876 142.5082,6.9766 C141.1822,8.4656 140.5192,10.7116 140.5192,13.7126 M135.1042,13.8916 C135.1042,11.2336 135.5012,9.0026 136.2942,7.1986 C136.8862,5.8706 137.6932,4.6776 138.7182,3.6206 C139.7412,2.5656 140.8622,1.7826 142.0822,1.2716 C143.7032,0.5836 145.5732,0.2396 147.6912,0.2396 C151.5272,0.2396 154.5952,1.4326 156.8972,3.8176 C159.2002,6.2016 160.3512,9.5186 160.3512,13.7666 C160.3512,17.9786 159.2092,21.2746 156.9242,23.6536 C154.6402,26.0326 151.5862,27.2216 147.7632,27.2216 C143.8932,27.2216 140.8152,26.0376 138.5302,23.6716 C136.2472,21.3036 135.1042,18.0446 135.1042,13.8916" id="Fill-30"></path>
                <path d="M161.4849,18.2869 L166.5979,17.7889 C166.9059,19.5089 167.5299,20.7729 168.4699,21.5799 C169.4119,22.3869 170.6809,22.7899 172.2789,22.7899 C173.9709,22.7899 175.2469,22.4309 176.1049,21.7129 C176.9629,20.9959 177.3929,20.1559 177.3929,19.1949 C177.3929,18.5779 177.2109,18.0529 176.8509,17.6199 C176.4899,17.1869 175.8589,16.8099 174.9589,16.4899 C174.3439,16.2759 172.9419,15.8969 170.7519,15.3509 C167.9349,14.6509 165.9579,13.7909 164.8229,12.7699 C163.2239,11.3339 162.4259,9.5839 162.4259,7.5189 C162.4259,6.1899 162.8009,4.9469 163.5529,3.7909 C164.3039,2.6339 165.3869,1.7529 166.8009,1.1479 C168.2159,0.5429 169.9239,0.2399 171.9239,0.2399 C175.1909,0.2399 177.6499,0.9579 179.3009,2.3939 C180.9509,3.8289 181.8189,5.7459 181.9019,8.1429 L176.6469,8.3729 C176.4219,7.0329 175.9389,6.0689 175.1989,5.4819 C174.4589,4.8939 173.3499,4.5999 171.8699,4.5999 C170.3439,4.5999 169.1479,4.9149 168.2839,5.5439 C167.7279,5.9469 167.4499,6.4869 167.4499,7.1639 C167.4499,7.7799 167.7099,8.3089 168.2309,8.7479 C168.8929,9.3059 170.5039,9.8869 173.0609,10.4919 C175.6159,11.0969 177.5079,11.7229 178.7329,12.3689 C179.9569,13.0159 180.9159,13.8999 181.6089,15.0209 C182.3019,16.1429 182.6479,17.5279 182.6479,19.1769 C182.6479,20.6719 182.2329,22.0729 181.4049,23.3769 C180.5759,24.6829 179.4039,25.6529 177.8899,26.2869 C176.3739,26.9219 174.4869,27.2399 172.2259,27.2399 C168.9349,27.2399 166.4089,26.4779 164.6449,24.9519 C162.8809,23.4279 161.8279,21.2059 161.4849,18.2869" id="Fill-32"></path>
                <path d="M206.3436,16.4537 L202.7576,6.7717 L199.2416,16.4537 L206.3436,16.4537 Z M216.0196,26.7767 L210.3026,26.7767 L208.0296,20.8497 L197.6266,20.8497 L195.4776,26.7767 L189.9026,26.7767 L200.0406,0.6847 L205.5976,0.6847 L216.0196,26.7767 Z" id="Fill-34"></path>
                <polygon id="Fill-36" points="217.011 26.777 222.266 26.777 222.266 0.685 217.011 0.685"></polygon>
                <path d="M230.9092,11.7201 L234.7972,11.7201 C237.3182,11.7201 238.8922,11.6131 239.5192,11.3991 C240.1472,11.1851 240.6382,10.8181 240.9932,10.2951 C241.3482,9.7731 241.5252,9.1211 241.5252,8.3381 C241.5252,7.4601 241.2922,6.7511 240.8252,6.2121 C240.3572,5.6711 239.6972,5.3301 238.8452,5.1871 C238.4192,5.1291 237.1412,5.0981 235.0102,5.0981 L230.9092,5.0981 L230.9092,11.7201 Z M225.6542,26.7771 L225.6542,0.6841 L236.7152,0.6841 C239.4962,0.6841 241.5172,0.9191 242.7772,1.3881 C244.0382,1.8571 245.0472,2.6901 245.8052,3.8891 C246.5622,5.0871 246.9412,6.4581 246.9412,8.0001 C246.9412,9.9571 246.3662,11.5741 245.2192,12.8501 C244.0712,14.1251 242.3542,14.9291 240.0702,15.2611 C241.2072,15.9261 242.1442,16.6561 242.8842,17.4501 C243.6232,18.2461 244.6212,19.6581 245.8762,21.6861 L249.0542,26.7771 L242.7682,26.7771 L238.9692,21.0991 C237.6202,19.0701 236.6962,17.7911 236.1992,17.2641 C235.7022,16.7361 235.1762,16.3731 234.6192,16.1781 C234.0632,15.9831 233.1812,15.8841 231.9742,15.8841 L230.9092,15.8841 L230.9092,26.7771 L225.6542,26.7771 Z" id="Fill-38"></path>
                <polygon id="Fill-39" points="250.2587 26.7768 250.2587 0.6848 269.5577 0.6848 269.5577 5.0988 255.5137 5.0988 255.5137 10.8838 268.5807 10.8838 268.5807 15.2788 255.5137 15.2788 255.5137 22.3808 270.0547 22.3808 270.0547 26.7768"></polygon>
                <path d="M271.5432,18.2869 L276.6562,17.7889 C276.9642,19.5089 277.5882,20.7729 278.5292,21.5799 C279.4702,22.3869 280.7392,22.7899 282.3372,22.7899 C284.0302,22.7899 285.3052,22.4309 286.1632,21.7129 C287.0222,20.9959 287.4512,20.1559 287.4512,19.1949 C287.4512,18.5779 287.2702,18.0529 286.9092,17.6199 C286.5482,17.1869 285.9172,16.8099 285.0182,16.4899 C284.4022,16.2759 283.0002,15.8969 280.8102,15.3509 C277.9932,14.6509 276.0172,13.7909 274.8812,12.7699 C273.2832,11.3339 272.4842,9.5839 272.4842,7.5189 C272.4842,6.1899 272.8592,4.9469 273.6112,3.7909 C274.3632,2.6339 275.4462,1.7529 276.8602,1.1479 C278.2742,0.5429 279.9822,0.2399 281.9822,0.2399 C285.2482,0.2399 287.7082,0.9579 289.3592,2.3939 C291.0102,3.8289 291.8772,5.7459 291.9602,8.1429 L286.7052,8.3729 C286.4802,7.0329 285.9972,6.0689 285.2582,5.4819 C284.5182,4.8939 283.4082,4.5999 281.9292,4.5999 C280.4022,4.5999 279.2072,4.9149 278.3422,5.5439 C277.7862,5.9469 277.5082,6.4869 277.5082,7.1639 C277.5082,7.7799 277.7682,8.3089 278.2892,8.7479 C278.9522,9.3059 280.5622,9.8869 283.1192,10.4919 C285.6752,11.0969 287.5662,11.7229 288.7912,12.3689 C290.0162,13.0159 290.9742,13.8999 291.6672,15.0209 C292.3602,16.1429 292.7062,17.5279 292.7062,19.1769 C292.7062,20.6719 292.2912,22.0729 291.4632,23.3769 C290.6342,24.6829 289.4622,25.6529 287.9482,26.2869 C286.4322,26.9219 284.5452,27.2399 282.2842,27.2399 C278.9932,27.2399 276.4672,26.4779 274.7032,24.9519 C272.9392,23.4279 271.8862,21.2059 271.5432,18.2869" id="Fill-40"></path>
            </g>
        </g>
    </g>
</svg>