<?xml version="1.0" encoding="UTF-8"?>
<svg width="186px" height="172px" viewBox="0 0 186 172" version="1.1" xmlns="http://www.w3.org/2000/svg" xmlns:xlink="http://www.w3.org/1999/xlink">
    <!-- Generator: Sketch 44.1 (41455) - http://www.bohemiancoding.com/sketch -->
    <title>Group 5</title>
    <desc>Created with Sketch.</desc>
    <defs></defs>
    <g id="Page-1" stroke="none" stroke-width="1" fill="none" fill-rule="evenodd">
        <g id="Desktop" transform="translate(-194.000000, -156.000000)">
            <g id="Group-5" transform="translate(194.000000, 156.000000)">
                <path d="M1.63809524,60.7906372 C3.28628965,60.4768596 5.10123842,60.2317246 7.08299599,60.0552247 C9.06475356,59.8787248 11.0366709,59.7904762 12.9988071,59.7904762 C15.0394287,59.7904762 17.0898303,59.957168 19.1500733,60.2905567 C21.2103164,60.6239453 23.0645073,61.2907126 24.7127017,62.2908786 C26.3608961,63.2910446 27.7049392,64.6834116 28.7448714,66.4680215 C29.7848036,68.2526313 30.3047619,70.5765115 30.3047619,73.4397317 C30.3047619,75.9499522 29.8534773,78.0973351 28.9508947,79.881945 C28.048312,81.6665549 26.8514269,83.1373651 25.3602034,84.2944199 C23.8689799,85.4514746 22.1717575,86.2947391 20.2684854,86.8242388 C18.3652133,87.3537384 16.3932959,87.6184842 14.3526743,87.6184842 L13.4108536,87.6184842 C12.9791837,87.6184842 12.5278991,87.6086788 12.0569864,87.5890677 C11.5860737,87.5694566 11.1249786,87.5400404 10.6736873,87.5008182 C10.222396,87.461596 9.89864835,87.4223744 9.70243473,87.3831522 L9.70243473,101.561905 L1.63809524,101.561905 L1.63809524,60.7906372 Z M13.8244105,66.3428571 C13.0292147,66.3428571 12.27379,66.3723564 11.5581137,66.4313559 C10.8424375,66.4903554 10.2659291,66.5591871 9.82857143,66.6378531 L9.82857143,80.0306699 C9.9876106,80.0700029 10.2261658,80.1093353 10.5442441,80.1486683 C10.8623224,80.1880013 11.2002756,80.2175006 11.5581137,80.2371671 C11.9159519,80.2568336 12.2638448,80.2666667 12.6018031,80.2666667 L13.3472954,80.2666667 C14.4208098,80.2666667 15.4843683,80.1683357 16.5380028,79.9716707 C17.5916373,79.7750057 18.5359182,79.411181 19.3708738,78.8801856 C20.2058294,78.3491902 20.8717959,77.6117077 21.3687933,76.6677159 C21.8657907,75.7237241 22.1142857,74.4847534 22.1142857,72.9507667 C22.1142857,71.652778 21.8757305,70.5809701 21.398613,69.7353107 C20.9214955,68.8896514 20.2952882,68.2111675 19.5199723,67.6998386 C18.7446563,67.1885097 17.8600142,66.8345181 16.8660194,66.6378531 C15.8720246,66.4411881 14.8581651,66.3428571 13.8244105,66.3428571 Z M59.0884354,92.4938776 L46.8612245,92.4938776 L44.0530612,101.561905 L36.0380952,101.561905 L49.2598639,60.6095238 L57.2748299,60.6095238 L70.4380952,101.561905 L62.0136054,101.561905 L59.0884354,92.4938776 Z M49.1428571,86 L58.152381,86 L53.887873,72.0761905 L53.3473016,72.0761905 L49.1428571,86 Z M77.8095238,60.7906372 C78.7065804,60.6337484 79.6718769,60.4866674 80.7054422,60.3493897 C81.7390074,60.212112 82.7725572,60.1042526 83.8061224,60.0258082 C84.8396877,59.9473638 85.8439861,59.8885314 86.8190476,59.8493092 C87.7941092,59.810087 88.6911524,59.7904762 89.5102041,59.7904762 C91.4213247,59.7904762 93.3031653,59.9767788 95.1557823,60.3493897 C97.0083993,60.7220005 98.6659791,61.3593516 100.128571,62.2614621 C101.591164,63.1635726 102.76122,64.3794424 103.638776,65.909108 C104.516331,67.4387736 104.955102,69.3410215 104.955102,71.6159088 C104.955102,73.3024632 104.789344,74.763468 104.457823,75.9989671 C104.126302,77.2344663 103.66803,78.3228659 103.082993,79.2641985 C102.497956,80.2055312 101.786172,81.0193795 100.947619,81.7057679 C100.109066,82.3921563 99.2022724,83.0098967 98.2272109,83.5590074 L108.114286,101.561905 L98.8707483,101.561905 L90.6217687,85.4416633 L85.8244898,85.4416633 L85.8244898,101.561905 L77.8095238,101.561905 L77.8095238,60.7906372 Z M90.2474109,67.1619048 C89.4328349,67.1619048 88.6279682,67.1815932 87.8327869,67.2209707 C87.0376055,67.2603482 86.4266827,67.339102 86,67.4572344 L86,79.447619 L89.1419204,79.447619 C91.3529124,79.447619 93.1565894,78.9357194 94.5530055,77.9119048 C95.9494215,76.8880901 96.647619,75.1948836 96.647619,72.8322344 C96.647619,71.0602476 96.1045765,69.672212 95.0184751,68.6680861 C93.9323738,67.6639602 92.3420349,67.1619048 90.2474109,67.1619048 Z M119.210288,95.1265306 L125.855335,95.1265306 L125.855335,67.044898 L120.259506,67.044898 L120.259506,74.1238095 L113.847619,74.1238095 L113.847619,60.6095238 L145.790476,60.6095238 L145.790476,74.1238095 L139.378589,74.1238095 L139.378589,67.044898 L133.84105,67.044898 L133.84105,95.1265306 L140.427807,95.1265306 L140.427807,101.561905 L119.210288,101.561905 L119.210288,95.1265306 Z M164.745578,86.4680272 L151.52381,60.6095238 L161.059864,60.6095238 L168.957823,77.5170068 L169.25034,77.5170068 L177.32381,60.6095238 L185.92381,60.6095238 L172.760544,86.4095238 L172.760544,101.561905 L164.745578,101.561905 L164.745578,86.4680272 Z" id="PARTY" fill="#00B8C3"></path>
                <path d="M22.8451282,121.219048 L28.6666667,123.841538 L7.4596337,172 L1.63809524,169.258305 L22.8451282,121.219048 Z M66.3428571,163.809524 L40.1333333,163.809524 L40.1333333,158.023423 C40.6034617,157.625751 41.1911133,157.098843 41.8963058,156.442684 C42.6014983,155.786525 43.394828,155.040901 44.2763186,154.205789 C45.1578092,153.370677 46.0882576,152.456045 47.0676917,151.461865 C48.0471257,150.467684 49.0069566,149.433752 49.9472133,148.360037 C51.2792436,146.848883 52.4447526,145.476935 53.4437754,144.244151 C54.4427981,143.011367 55.2655103,141.848194 55.9119368,140.754595 C56.5583633,139.660997 57.0382787,138.587298 57.3516976,137.533467 C57.6651165,136.479635 57.8218236,135.395995 57.8218236,134.282513 C57.8218236,133.487169 57.6455281,132.71172 57.2929319,131.956142 C56.9403356,131.200565 56.450626,130.534474 55.8237882,129.95785 C55.1969504,129.381225 54.4427975,128.923909 53.5613069,128.585888 C52.6798162,128.247866 51.7101911,128.078858 50.6524023,128.078858 C49.2420173,128.078858 47.9589779,128.297575 46.8032458,128.735014 C45.6475136,129.172453 44.4428278,129.908136 43.1891523,130.942084 L40.1333333,125.454235 C41.7787825,124.261219 43.6102967,123.257111 45.6279308,122.441883 C47.6455649,121.626655 49.9667888,121.219048 52.591672,121.219048 C54.2762986,121.219048 55.8923405,121.457647 57.4398463,121.934854 C58.987352,122.412061 60.3585391,123.117918 61.5534486,124.052448 C62.7483582,124.986977 63.6983949,126.150151 64.4035874,127.542003 C65.10878,128.933856 65.4613709,130.544404 65.4613709,132.373696 C65.4613709,133.646247 65.3536348,134.829304 65.1381593,135.922902 C64.9226838,137.016501 64.5896812,138.110083 64.1391416,139.203681 C63.6886019,140.29728 63.1009503,141.420687 62.3761691,142.573936 C61.6513879,143.727186 60.7797047,144.979834 59.7610933,146.331919 C58.9775461,147.365867 58.1254513,148.409741 57.2047833,149.463572 C56.2841153,150.517403 55.3732553,151.521511 54.472176,152.475924 C53.5710966,153.430337 52.679825,154.325086 51.7983344,155.160197 C50.9168438,155.995309 50.1235141,156.691225 49.4183216,157.247966 L66.3428571,157.247966 L66.3428571,163.809524 Z M75.352381,142.864181 C75.352381,139.246703 75.7285555,136.076488 76.480916,133.353441 C77.2332765,130.630394 78.292505,128.374473 79.6586332,126.58561 C81.0247615,124.796747 82.6581512,123.45512 84.5588513,122.560688 C86.4595515,121.666257 88.5780084,121.219048 90.9142857,121.219048 C95.9036236,121.219048 99.7445643,122.97807 102.437223,126.496167 C105.129881,130.014264 106.47619,135.470214 106.47619,142.864181 C106.47619,146.521412 106.100016,149.711503 105.347655,152.43455 C104.595295,155.157597 103.536066,157.423456 102.169938,159.232195 C100.80381,161.040934 99.1605209,162.392499 97.2400218,163.286931 C95.3195227,164.181362 93.1911664,164.628571 90.8548891,164.628571 C85.8259533,164.628571 81.9850127,162.770169 79.331952,159.05331 C76.6788914,155.33645 75.352381,149.940128 75.352381,142.864181 Z M99.1047619,142.777737 C99.1047619,142.137799 99.0948141,141.527867 99.0749181,140.947922 C99.0550221,140.367978 99.0251785,139.798041 98.9853865,139.238095 L84.3619048,152.616742 C85.5954563,156.256393 87.8436698,158.07619 91.1066127,158.07619 C93.6532998,158.07619 95.6229736,156.856326 97.0156931,154.416561 C98.4084126,151.976795 99.1047619,148.097226 99.1047619,142.777737 Z M82.7238095,142.524888 C82.7238095,143.108032 82.7337978,143.66201 82.7537747,144.186839 C82.7737516,144.711669 82.8037164,145.246209 82.8436702,145.790476 L97.4666667,132.786439 C96.2680544,129.443082 94.0107018,127.771429 90.6945412,127.771429 C88.1375017,127.771429 86.1698094,128.966855 84.7914053,131.357744 C83.4130012,133.748633 82.7238095,137.470977 82.7238095,142.524888 Z M116.997261,157.245442 L126.140364,157.245442 L126.140364,131.168136 L118.252197,137.195156 L114.666667,132.421279 L128.291682,122.038095 L133.55046,122.038095 L133.55046,157.245442 L142.514286,157.245442 L142.514286,163.809524 L116.997261,163.809524 L116.997261,157.245442 Z M154.595238,163.809524 L171.665915,129.079565 L152.342857,129.079565 L152.342857,122.038095 L179.371429,122.038095 L179.371429,127.886095 L162.122932,163.809524 L154.595238,163.809524 Z" id="/2017" fill="#FF5D5D"></path>
                <path d="M22.3206227,19.9496599 L22.6120147,13.5727891 L22.2623443,13.5727891 L15.7351648,24.2789116 L14.3364835,24.2789116 L7.51791209,13.5727891 L7.22652015,13.5727891 L7.57619048,19.3061224 L7.57619048,41.7714286 L0,41.7714286 L0,0.819047619 L8.10069597,0.819047619 L15.0941026,12.1687075 L15.3272161,12.1687075 L22.2623443,0.819047619 L30.3047619,0.819047619 L30.3047619,41.7714286 L22.3206227,41.7714286 L22.3206227,19.9496599 Z M39.3142857,0.819047619 L66.051601,0.819047619 L66.051601,7.95646259 L47.2947044,7.95646259 L47.2947044,17.492517 L64.5953202,17.492517 L64.5953202,24.629932 L47.2947044,24.629932 L47.2947044,34.6340136 L66.3428571,34.6340136 L66.3428571,41.7714286 L39.3142857,41.7714286 L39.3142857,0.819047619 Z M75.352381,0.590713955 C75.7089093,0.551332828 76.3328247,0.492262023 77.2241457,0.413499769 C78.1154666,0.334737514 79.1256153,0.265821575 80.2546218,0.206749884 C81.3836284,0.147678194 82.5522317,0.0984525228 83.7604669,0.0590713955 C84.968702,0.0196902683 86.0481745,0 86.9989169,0 C90.6830436,0 93.7332964,0.531637244 96.1497666,1.59492768 C98.5662368,2.65821812 100.477596,4.1251431 101.883903,5.99574665 C103.290209,7.86635019 104.270648,10.0716602 104.825247,12.6117429 C105.379847,15.1518257 105.657143,17.9183084 105.657143,20.911274 C105.657143,23.6285718 105.379847,26.286758 104.825247,28.8859124 C104.270648,31.4850668 103.270402,33.7986733 101.824482,35.8268014 C100.378561,37.8549295 98.3780707,39.4892217 95.8229505,40.7297272 C93.2678304,41.9702327 89.989799,42.5904762 85.9887582,42.5904762 C85.3549299,42.5904762 84.5428496,42.5707859 83.552493,42.5314048 C82.5621363,42.4920237 81.5519877,42.442798 80.5220168,42.3837263 C79.4920459,42.3246546 78.5017041,42.2655838 77.5509617,42.2065121 C76.6002193,42.1474404 75.8673664,42.0785245 75.352381,41.9997622 L75.352381,0.590713955 Z M87.4342275,7.37142857 C86.6640566,7.37142857 85.9141646,7.40061866 85.184529,7.4589997 C84.4548934,7.51738075 83.9076749,7.56603089 83.5428571,7.60495158 L83.5428571,34.9855246 C83.7049984,35.0244453 83.9482066,35.0536354 84.2724891,35.0730957 C84.5967716,35.0925561 84.9311829,35.1120161 85.275733,35.1314765 C85.6202831,35.1509368 85.9546944,35.1703969 86.2789769,35.1898572 C86.6032594,35.2093176 86.866735,35.2190476 87.0694115,35.2190476 C89.4204595,35.2190476 91.2951895,34.8006564 92.6936577,33.9638614 C94.0921259,33.1270665 95.1358945,32.0275733 95.8249948,30.6653489 C96.5140951,29.3031245 96.9599768,27.7657801 97.1626534,26.0532694 C97.3653299,24.3407588 97.4666667,22.6282738 97.4666667,20.9157632 C97.4666667,19.4367767 97.3754636,17.8994323 97.1930547,16.3036837 C97.0106458,14.7079352 96.5850314,13.248431 95.9161988,11.9251273 C95.2473662,10.6018236 94.2441323,9.51206045 92.906467,8.65580513 C91.5688018,7.79954981 89.7447402,7.37142857 87.4342275,7.37142857 Z M113.028571,34.6340136 L123.34158,34.6340136 L123.34158,7.95646259 L113.028571,7.95646259 L113.028571,0.819047619 L141.695238,0.819047619 L141.695238,7.95646259 L131.323964,7.95646259 L131.323964,34.6340136 L141.695238,34.6340136 L141.695238,41.7714286 L113.028571,41.7714286 L113.028571,34.6340136 Z M170.478912,32.7034014 L158.251701,32.7034014 L155.443537,41.7714286 L147.428571,41.7714286 L160.65034,0.819047619 L168.665306,0.819047619 L181.828571,41.7714286 L173.404082,41.7714286 L170.478912,32.7034014 Z M159.714286,26.2095238 L168.72381,26.2095238 L164.459302,12.2857143 L163.91873,12.2857143 L159.714286,26.2095238 Z" id="MEDIA" fill="#000000"></path>
            </g>
        </g>
    </g>
</svg>