<?xml version="1.0" encoding="UTF-8"?>
<svg width="243px" height="224px" viewBox="0 0 243 224" version="1.1" xmlns="http://www.w3.org/2000/svg" xmlns:xlink="http://www.w3.org/1999/xlink">
    <!-- Generator: Sketch 45 (43475) - http://www.bohemiancoding.com/sketch -->
    <title>logo_mp_sq_w copy</title>
    <desc>Created with Sketch.</desc>
    <defs></defs>
    <g id="V.2" stroke="none" stroke-width="1" fill="none" fill-rule="evenodd">
        <g id="Desktop" transform="translate(-233.000000, -194.000000)">
            <g id="Group-5" transform="translate(40.000000, 193.000000)">
                <g id="logo_mp_sq_w" transform="translate(193.000000, 0.000000)">
                    <g>
                        <g id="Media" transform="translate(11.007519, 0.000000)">
                            <polygon id="Fill-66" fill="#000000" points="13.3150617 4.425 21.0533474 30.6256098 29.6025203 4.425 42.3437233 4.425 42.3437233 65.072561 32.6809564 65.072561 32.6809564 44.2445122 33.2808662 17.6707317 23.7043248 46.745122 18.3161444 46.745122 9.63855038 18.6695122 10.2366256 44.2445122 10.2366256 65.072561 0.575693233 65.072561 0.575693233 4.425"></polygon>
                            <polygon id="Fill-68" fill="#000000" points="90.9448541 37.872439 65.3358617 37.872439 65.3358617 56.9078049 95.3056662 56.9078049 95.3056662 65.0718293 55.0328241 65.0718293 55.0328241 4.42426829 95.0066286 4.42426829 95.0066286 12.672439 65.3358617 12.672439 65.3358617 29.792561 90.9448541 29.792561"></polygon>
                            <path d="M116.859489,12.5056098 L116.859489,57.0336585 L121.946797,57.0336585 C124.768391,57.0043902 127.234075,56.5123171 129.34385,55.5537805 C131.451789,54.5970732 133.211158,53.2489024 134.621955,51.5147561 C136.032752,49.7787805 137.087639,47.6879268 137.786617,45.2458537 C138.485594,42.8019512 138.848842,40.08 138.876361,37.0818293 L138.876361,32.4153659 C138.848842,29.4995122 138.485594,26.8342683 137.786617,24.4178049 C137.087639,22.0031707 136.027248,19.9123171 134.601774,18.1489024 C133.176301,16.3854878 131.387579,15.0117073 129.235609,14.0257317 C127.083639,13.0397561 124.555579,12.5330488 121.647759,12.5056098 L116.859489,12.5056098 Z M106.42803,65.0714634 L106.42803,4.42573171 L121.647759,4.42573171 C125.922346,4.45317073 129.76397,5.14646341 133.168962,6.50743902 C136.575789,7.86841463 139.467098,9.78365854 141.848391,12.255 C144.22785,14.7263415 146.058767,17.6769512 147.341143,21.1068293 C148.623519,24.5367073 149.280301,28.3342683 149.30782,32.4995122 L149.30782,37.0818293 C149.280301,41.2470732 148.623519,45.0428049 147.341143,48.4726829 C146.058767,51.902561 144.235188,54.8458537 141.868571,57.3043902 C139.503789,59.7610976 136.64,61.6708537 133.275368,63.03 C129.912571,64.3909756 126.136992,65.0714634 121.946797,65.0714634 L106.42803,65.0714634 Z" id="Fill-70" fill="#000000"></path>
                            <polygon id="Fill-74" fill="#FF6C6C" points="163.21637 67.6752439 153.896671 67.6752439 174.873332 1.82158537 184.193032 1.82158537"></polygon>
                            <path d="M200.139624,42.4542073 L214.418211,42.4542073 L207.364226,18.670061 L200.139624,42.4542073 Z M216.982962,50.9932317 L197.532677,50.9932317 L193.256256,65.0712805 L182.65418,65.0712805 L202.874992,4.42554878 L211.895654,4.42554878 L231.733038,65.0712805 L221.173158,65.0712805 L216.982962,50.9932317 Z" id="Fill-72" fill="#000000"></path>
                        </g>
                        <g id="Party" transform="translate(11.007519, 80.487805)" fill="#000000">
                            <path d="M10.9003789,31.8943902 L21.5263038,31.8943902 C23.2764992,31.8943902 24.8395669,31.6309756 26.2155068,31.1041463 C27.5932812,30.5773171 28.7692511,29.8437805 29.7434165,28.9035366 C30.7194165,27.965122 31.4642586,26.840122 31.981612,25.5303659 C32.4971308,24.2187805 32.7558075,22.7956098 32.7558075,21.2571951 C32.7558075,19.6346341 32.4971308,18.140122 31.981612,16.7718293 C31.4642586,15.4053659 30.7194165,14.2309756 29.7434165,13.2486585 C28.7692511,12.2663415 27.5932812,11.5035366 26.2155068,10.9620732 C24.8395669,10.422439 23.2764992,10.1370732 21.5263038,10.1078049 L10.9003789,10.1078049 L10.9003789,31.8943902 Z M10.9003789,40.1809756 L10.9003789,64.0163415 L0.575326316,64.0163415 L0.575326316,1.82121951 L21.5263038,1.82121951 C24.6524391,1.8504878 27.5419128,2.31329268 30.1965594,3.20963415 C32.8493714,4.10780488 35.1371008,5.38829268 37.0579128,7.0547561 C38.9787248,8.72121951 40.477582,10.742561 41.5544842,13.1206098 C42.6295519,15.4986585 43.1670857,18.1821951 43.1670857,21.1730488 C43.1670857,24.0779268 42.6295519,26.697439 41.5544842,29.0315854 C40.477582,31.367561 38.9787248,33.3614634 37.0579128,35.0132927 C35.1371008,36.665122 32.8493714,37.9309756 30.1965594,38.8145122 C27.5419128,39.6980488 24.6524391,40.1535366 21.5263038,40.1809756 L10.9003789,40.1809756 Z" id="Fill-77"></path>
                            <path d="M58.8234466,40.8223171 L73.1919278,40.8223171 L66.0939128,16.4308537 L58.8234466,40.8223171 Z M75.7750256,49.5790244 L56.199988,49.5790244 L51.8960481,64.017439 L41.2279278,64.017439 L61.5771609,1.82231707 L70.6546947,1.82231707 L90.6168301,64.017439 L79.9909053,64.017439 L75.7750256,49.5790244 Z" id="Fill-79"></path>
                            <path d="M110.016298,31.4672561 L119.524959,31.4672561 C121.245802,31.4672561 122.821711,31.2257927 124.256358,30.7410366 C125.691005,30.2562805 126.931185,29.5666463 127.978734,28.6684756 C129.024448,27.7721341 129.835335,26.6764024 130.409561,25.3794512 C130.981952,24.0843293 131.269982,22.5971341 131.269982,20.9160366 C131.269982,19.1782317 130.996629,17.6416463 130.451756,16.302622 C129.906884,14.9635976 129.12535,13.8385976 128.107155,12.927622 C127.088959,12.0166463 125.848779,11.3270122 124.386614,10.8568902 C122.922614,10.3867683 121.287997,10.1379878 119.480929,10.1087195 L110.016298,10.1087195 L110.016298,31.4672561 Z M120.513802,39.7538415 L110.016298,39.7538415 L110.016298,64.0172561 L99.6912451,64.0172561 L99.6912451,1.82213415 L119.480929,1.82213415 C122.69329,1.84957317 125.654313,2.25567073 128.365832,3.03859756 C131.075516,3.82152439 133.420117,4.99042683 135.399636,6.54164634 C137.379155,8.09469512 138.912869,10.037378 140.002614,12.3733537 C141.092358,14.7075 141.63723,17.4422561 141.63723,20.5739634 C141.63723,22.6812805 141.358373,24.5965244 140.798824,26.3196951 C140.239275,28.0428659 139.457741,29.6014024 138.454223,30.9971341 C137.450704,32.3928659 136.24538,33.6166463 134.840087,34.6703049 C133.434794,35.7239634 131.886403,36.6221341 130.19308,37.3629878 L143.444298,63.505061 L143.444298,64.0172561 L132.431275,64.0172561 L120.513802,39.7538415 Z" id="Fill-81"></path>
                            <polygon id="Fill-83" points="187.939991 10.2795732 172.59551 10.2795732 172.59551 64.0161585 162.312653 64.0161585 162.312653 10.2795732 147.012202 10.2795732 147.012202 1.82103659 187.939991 1.82103659"></polygon>
                            <polygon id="Fill-85" points="222.354265 1.82158537 214.485723 27.2484146 204.556941 1.82158537 195.178535 1.82158537 209.787347 42.3380488 202.913152 64.0167073 212.293392 64.0167073 231.732671 1.82158537"></polygon>
                        </g>
                        <g id="2017" transform="translate(0.000000, 157.317073)">
                            <polygon id="Fill-87" fill="#00B8C3" points="9.89667669 67.6752439 0.575142857 67.6752439 21.5554737 1.82158537 30.8770075 1.82158537"></polygon>
                            <path d="M79.3588902,65.4885366 L37.5413263,65.4885366 L37.5413263,58.6159756 L57.808003,37.0818293 C59.5178376,35.2196341 60.9506496,33.575122 62.1064391,32.1446341 C63.260394,30.7141463 64.1795218,29.402561 64.8638226,28.2080488 C65.5481233,27.0153659 66.0324541,25.905 66.316815,24.8769512 C66.6030105,23.8489024 66.7442737,22.8080488 66.7442737,21.752561 C66.7442737,20.3641463 66.5241233,19.08 66.081988,17.900122 C65.6398526,16.7202439 65.0124241,15.7068293 64.2015368,14.859878 C63.388815,14.0129268 62.4054767,13.352561 61.2496872,12.8806098 C60.0957323,12.4086585 58.806018,12.1726829 57.3805444,12.1726829 C53.6746797,12.1726829 50.944815,13.1586585 49.192785,15.1306098 C47.4389203,17.1007317 46.561988,19.8226829 46.561988,23.2946341 L36.3011459,23.2946341 C36.3011459,20.655 36.792815,18.1635366 37.7761534,15.8165854 C38.7594917,13.4714634 40.1702887,11.4226829 42.0085444,9.67390244 C43.8468,7.92329268 46.0776571,6.54219512 48.7011158,5.52878049 C51.3227398,4.51536585 54.2727549,4.00865854 57.5511609,4.00865854 C60.629597,4.00865854 63.3668,4.43853659 65.7609353,5.30012195 C68.1550707,6.15987805 70.1804541,7.36170732 71.8334165,8.90195122 C73.4863789,10.4440244 74.7412361,12.2696341 75.5961534,14.3806098 C76.4510707,16.4897561 76.8785293,18.8092683 76.8785293,21.3354878 C76.8785293,23.225122 76.564815,25.0507317 75.9373865,26.8141463 C75.3117925,28.577561 74.4421985,30.3336585 73.3304391,32.082439 C72.2186797,33.8312195 70.8922737,35.5891463 69.3530556,37.352561 C67.8138376,39.1159756 66.1461985,40.9269512 64.3501383,42.7873171 L50.2403338,57.5330488 L79.3588902,57.5330488 L79.3588902,65.4885366 Z" id="Fill-91" fill="#000000"></path>
                            <path d="M121.907353,35.4704268 C121.907353,43.5521341 115.335865,50.1045732 107.230662,50.1045732 C99.1254586,50.1045732 92.5539699,43.5521341 92.5539699,35.4704268 C92.5539699,27.3887195 99.1254586,20.8362805 107.230662,20.8362805 C115.335865,20.8362805 121.907353,27.3887195 121.907353,35.4704268" id="Fill-97" fill="#000000"></path>
                            <polygon id="Fill-93" fill="#000000" points="161.085865 65.0720122 150.780992 65.0720122 150.780992 16.7116463 134.875128 22.3768902 134.875128 13.6311585 160.443759 4.42445122 161.085865 4.42445122"></polygon>
                            <polygon id="Fill-95" fill="#000000" points="206.503071 9.96493902 188.872695 65.0716463 178.096334 65.0716463 195.728544 12.7143293 170.741477 12.7143293 170.741477 4.42591463 206.503071 4.42591463"></polygon>
                            <polygon id="Fill-89" fill="#FFDB49" points="219.925456 67.6752439 210.603922 67.6752439 231.584253 1.82158537 240.905786 1.82158537"></polygon>
                        </g>
                    </g>
                </g>
            </g>
        </g>
    </g>
</svg>