<?xml version="1.0" encoding="UTF-8"?>
<svg width="182px" height="36px" viewBox="0 0 182 36" version="1.1" xmlns="http://www.w3.org/2000/svg" xmlns:xlink="http://www.w3.org/1999/xlink">
    <!-- Generator: Sketch 45 (43475) - http://www.bohemiancoding.com/sketch -->
    <title>Group 20</title>
    <desc>Created with Sketch.</desc>
    <defs></defs>
    <g id="V.2" stroke="none" stroke-width="1" fill="none" fill-rule="evenodd">
        <g id="Desktop" transform="translate(-549.000000, -9189.000000)">
            <g id="Group-20" transform="translate(549.000000, 9189.000000)">
                <polygon id="Fill-131" fill="#00B8C3" points="108.081 36 103 36 114.436 0 119.517 0"></polygon>
                <polygon id="Fill-133" fill="#FF6C6C" points="32.081 36 27 36 38.436 0 43.517 0"></polygon>
                <polygon id="Fill-135" fill="#FFDB49" points="170.081 36 165 36 176.436 0 181.517 0"></polygon>
                <polygon id="Fill-137" fill="#000000" points="138.287 35.154 132.67 35.154 132.67 8.717 124 11.814 124 7.033 137.937 2 138.287 2"></polygon>
                <polygon id="Fill-139" fill="#000000" points="163.493 5.029 153.883 35.154 148.009 35.154 157.62 6.532 144 6.532 144 2 163.493 2"></polygon>
                <polygon id="Fill-141" fill="#000000" points="54.944 2 59.162 16.323 63.823 2 70.767 2 70.767 35.154 65.5 35.154 65.5 23.769 65.827 9.241 60.607 25.135 57.67 25.135 52.94 9.787 53.266 23.769 53.266 35.154 48 35.154 48 2"></polygon>
                <path d="M83.628,21.97 L83.628,35 L78,35 L78,1 L89.42,1 C91.124,1.016 92.699,1.268 94.146,1.759 C95.592,2.249 96.839,2.95 97.886,3.861 C98.933,4.771 99.75,5.877 100.337,7.177 C100.923,8.476 101.216,9.944 101.216,11.578 C101.216,13.166 100.923,14.599 100.337,15.875 C99.75,17.152 98.933,18.241 97.886,19.144 C96.839,20.047 95.592,20.74 94.146,21.223 C92.699,21.705 91.124,21.954 89.42,21.97 L83.628,21.97 Z" id="Fill-143" fill="#000000"></path>
                <path d="M8.029,23 L10.57,15 L18.087,15 L15.546,23 L8.029,23 Z M26,25 L26,23 L18.529,23 L21.07,15 L28,15 L28,13 L21.711,13 L25.153,2 L22.168,2 L18.726,13 L11.211,13 L14.653,2 L11.668,2 L8.226,13 L2,13 L2,15 L7.587,15 L5.046,23 L0,23 L0,25 L4.417,25 L0.869,36 L3.849,36 L7.397,25 L14.917,25 L11.369,36 L14.349,36 L17.897,25 L26,25 Z" id="Fill-157" fill="#000000"></path>
            </g>
        </g>
    </g>
</svg>